Radley-italic-Bold.ufo
<glyph name="percent" format="1">
  <advance width="1772"/>
  <unicode hex="0025"/>
  <outline>
    <contour>
      <point x="1571" y="337" type="curve" smooth="yes"/>
      <point x="1534" y="158"/>
      <point x="1461" y="41"/>
      <point x="1361" y="41" type="curve" smooth="yes"/>
      <point x="1248" y="41"/>
      <point x="1224" y="172"/>
      <point x="1263" y="363" type="curve"/>
      <point x="1304" y="555"/>
      <point x="1379" y="677"/>
      <point x="1479" y="677" type="curve" smooth="yes"/>
      <point x="1590" y="677"/>
      <point x="1614" y="541"/>
    </contour>
    <contour>
      <point x="1109" y="358" type="curve" smooth="yes"/>
      <point x="1066" y="152"/>
      <point x="1150" y="-22"/>
      <point x="1348" y="-22" type="curve"/>
      <point x="1535" y="-18"/>
      <point x="1685" y="149"/>
      <point x="1728" y="349" type="curve"/>
      <point x="1771" y="557"/>
      <point x="1686" y="735"/>
      <point x="1495" y="735" type="curve" smooth="yes"/>
      <point x="1306" y="735"/>
      <point x="1152" y="563"/>
    </contour>
    <contour>
      <point x="461" y="-138" type="curve"/>
      <point x="509" y="-98"/>
      <point x="563" y="-54"/>
      <point x="613" y="18" type="curve"/>
      <point x="984" y="581"/>
      <point x="1339" y="1014"/>
      <point x="1514" y="1238" type="curve"/>
      <point x="1618" y="1368" type="line"/>
      <point x="1602" y="1381"/>
      <point x="1582" y="1396"/>
      <point x="1531" y="1396" type="curve"/>
      <point x="1416" y="1315"/>
      <point x="1326" y="1136"/>
      <point x="1232" y="1017" type="curve"/>
      <point x="497" y="34" type="line"/>
      <point x="459" y="-14"/>
      <point x="421" y="-60"/>
      <point x="386" y="-108" type="curve"/>
      <point x="402" y="-125"/>
      <point x="429" y="-138"/>
    </contour>
    <contour>
      <point x="314" y="950" type="curve" smooth="yes"/>
      <point x="271" y="745"/>
      <point x="355" y="571"/>
      <point x="553" y="571" type="curve"/>
      <point x="741" y="574"/>
      <point x="890" y="742"/>
      <point x="932" y="941" type="curve" smooth="yes"/>
      <point x="977" y="1149"/>
      <point x="892" y="1327"/>
      <point x="701" y="1327" type="curve" smooth="yes"/>
      <point x="511" y="1327"/>
      <point x="357" y="1155"/>
    </contour>
    <contour>
      <point x="777" y="929" type="curve" smooth="yes"/>
      <point x="740" y="750"/>
      <point x="667" y="633"/>
      <point x="566" y="633" type="curve" smooth="yes"/>
      <point x="453" y="633"/>
      <point x="427" y="765"/>
      <point x="468" y="956" type="curve" smooth="yes"/>
      <point x="509" y="1148"/>
      <point x="584" y="1270"/>
      <point x="685" y="1270" type="curve" smooth="yes"/>
      <point x="796" y="1270"/>
      <point x="820" y="1133"/>
    </contour>
  </outline>
</glyph>
<glyph name="ampersand" format="1">
  <advance width="1646"/>
  <unicode hex="0026"/>
  <outline>
    <contour>
      <point x="749" y="-20" type="curve" smooth="yes"/>
      <point x="1088" y="-20"/>
      <point x="1392" y="166"/>
      <point x="1392" y="517" type="curve" smooth="yes"/>
      <point x="1392" y="607"/>
      <point x="1367" y="686"/>
      <point x="1314" y="765" type="curve"/>
      <point x="1314" y="765"/>
      <point x="1388" y="758"/>
      <point x="1413" y="758" type="curve" smooth="yes"/>
      <point x="1550" y="758"/>
      <point x="1667" y="856"/>
      <point x="1667" y="999" type="curve" smooth="yes"/>
      <point x="1667" y="1163"/>
      <point x="1535" y="1226"/>
      <point x="1392" y="1226" type="curve" smooth="yes"/>
      <point x="1307" y="1226"/>
      <point x="1265" y="1173"/>
      <point x="1265" y="1119" type="curve" smooth="yes"/>
      <point x="1265" y="1070"/>
      <point x="1301" y="1023"/>
      <point x="1373" y="1023" type="curve" smooth="yes"/>
      <point x="1453" y="1023"/>
      <point x="1481" y="1106"/>
      <point x="1502" y="1106" type="curve" smooth="yes"/>
      <point x="1536" y="1106"/>
      <point x="1563" y="1046"/>
      <point x="1563" y="1014" type="curve" smooth="yes"/>
      <point x="1563" y="951"/>
      <point x="1509" y="912"/>
      <point x="1449" y="912" type="curve" smooth="yes"/>
      <point x="1307" y="912"/>
      <point x="1174" y="976"/>
      <point x="1031" y="976" type="curve" smooth="yes"/>
      <point x="818" y="976"/>
      <point x="623" y="845"/>
      <point x="623" y="619" type="curve" smooth="yes"/>
      <point x="623" y="440"/>
      <point x="783" y="374"/>
      <point x="889" y="374" type="curve" smooth="yes"/>
      <point x="1001" y="374"/>
      <point x="1112" y="444"/>
      <point x="1112" y="569" type="curve" smooth="yes"/>
      <point x="1112" y="642"/>
      <point x="1055" y="681"/>
      <point x="1003" y="681" type="curve" smooth="yes"/>
      <point x="955" y="681"/>
      <point x="910" y="651"/>
      <point x="910" y="584" type="curve" smooth="yes"/>
      <point x="910" y="553"/>
      <point x="917" y="526"/>
      <point x="917" y="504" type="curve" smooth="yes"/>
      <point x="917" y="486"/>
      <point x="890" y="476"/>
      <point x="872" y="476" type="curve" smooth="yes"/>
      <point x="792" y="476"/>
      <point x="724" y="552"/>
      <point x="724" y="631" type="curve" smooth="yes"/>
      <point x="724" y="752"/>
      <point x="852" y="807"/>
      <point x="960" y="807" type="curve" smooth="yes"/>
      <point x="1158" y="807"/>
      <point x="1291" y="703"/>
      <point x="1291" y="498" type="curve" smooth="yes"/>
      <point x="1291" y="235"/>
      <point x="960" y="170"/>
      <point x="767" y="170" type="curve" smooth="yes"/>
      <point x="540" y="170"/>
      <point x="230" y="242"/>
      <point x="230" y="516" type="curve" smooth="yes"/>
      <point x="230" y="590"/>
      <point x="271" y="683"/>
      <point x="345" y="717" type="curve"/>
      <point x="370" y="677"/>
      <point x="407" y="646"/>
      <point x="467" y="646" type="curve" smooth="yes"/>
      <point x="535" y="646"/>
      <point x="577" y="702"/>
      <point x="577" y="757" type="curve" smooth="yes"/>
      <point x="577" y="807"/>
      <point x="542" y="858"/>
      <point x="465" y="858" type="curve" smooth="yes"/>
      <point x="439" y="858"/>
      <point x="412" y="850"/>
      <point x="391" y="843" type="curve"/>
      <point x="384" y="859"/>
      <point x="376" y="889"/>
      <point x="376" y="936" type="curve" smooth="yes"/>
      <point x="376" y="1027"/>
      <point x="404" y="1053"/>
      <point x="444" y="1053" type="curve" smooth="yes"/>
      <point x="518" y="1053"/>
      <point x="638" y="974"/>
      <point x="716" y="974" type="curve" smooth="yes"/>
      <point x="774" y="974"/>
      <point x="820" y="1033"/>
      <point x="820" y="1081" type="curve" smooth="yes"/>
      <point x="820" y="1188"/>
      <point x="707" y="1254"/>
      <point x="599" y="1254" type="curve" smooth="yes"/>
      <point x="433" y="1254"/>
      <point x="276" y="1118"/>
      <point x="276" y="951" type="curve" smooth="yes"/>
      <point x="276" y="876"/>
      <point x="290" y="831"/>
      <point x="302" y="804" type="curve"/>
      <point x="302" y="804"/>
      <point x="124" y="693"/>
      <point x="124" y="471" type="curve" smooth="yes"/>
      <point x="124" y="141"/>
      <point x="495" y="-20"/>
    </contour>
  </outline>
</glyph>
<glyph name="quotesingle" format="1">
  <advance width="370"/>
  <unicode hex="0027"/>
  <outline>
    <contour>
      <point x="329" y="753" type="curve"/>
      <point x="330" y="753"/>
      <point x="332" y="752"/>
      <point x="333" y="752" type="curve" smooth="yes"/>
      <point x="403" y="752"/>
      <point x="517" y="1108"/>
      <point x="536" y="1200" type="curve" smooth="yes"/>
      <point x="538" y="1211"/>
      <point x="540" y="1221"/>
      <point x="540" y="1230" type="curve" smooth="yes"/>
      <point x="540" y="1276"/>
      <point x="510" y="1302"/>
      <point x="457" y="1302" type="curve" smooth="yes"/>
      <point x="393" y="1302"/>
      <point x="347" y="1264"/>
      <point x="333" y="1200" type="curve" smooth="yes"/>
      <point x="324" y="1160"/>
      <point x="300" y="991"/>
      <point x="300" y="872" type="curve" smooth="yes"/>
      <point x="300" y="807"/>
      <point x="308" y="757"/>
    </contour>
  </outline>
</glyph>
<glyph name="parenleft" format="1">
  <advance width="720"/>
  <unicode hex="0028"/>
  <outline>
    <contour>
      <point x="695" y="1261" type="curve"/>
      <point x="689" y="1275"/>
      <point x="664" y="1331"/>
      <point x="637" y="1331" type="curve" smooth="yes"/>
      <point x="633" y="1331"/>
      <point x="630" y="1330"/>
      <point x="626" y="1328" type="curve" smooth="yes"/>
      <point x="211" y="1081"/>
      <point x="73" y="702"/>
      <point x="73" y="365" type="curve" smooth="yes"/>
      <point x="73" y="95"/>
      <point x="161" y="-148"/>
      <point x="267" y="-275" type="curve"/>
      <point x="273" y="-280"/>
      <point x="281" y="-283"/>
      <point x="289" y="-283" type="curve" smooth="yes"/>
      <point x="310" y="-283"/>
      <point x="335" y="-267"/>
      <point x="354" y="-254" type="curve"/>
      <point x="306" y="-87"/>
      <point x="280" y="79"/>
      <point x="280" y="241" type="curve" smooth="yes"/>
      <point x="280" y="613"/>
      <point x="412" y="965"/>
    </contour>
  </outline>
</glyph>
<glyph name="asterisk" format="1">
  <advance width="1218"/>
  <unicode hex="002A"/>
  <outline>
    <contour>
      <point x="955" y="1221" type="curve" smooth="yes"/>
      <point x="966" y="1271"/>
      <point x="932" y="1309"/>
      <point x="882" y="1309" type="curve" smooth="yes"/>
      <point x="835" y="1309"/>
      <point x="782" y="1276"/>
      <point x="771" y="1226" type="curve"/>
      <point x="745" y="1098"/>
      <point x="749" y="948"/>
      <point x="738" y="820" type="curve"/>
      <point x="680" y="853"/>
      <point x="447" y="1009"/>
      <point x="388" y="1009" type="curve" smooth="yes"/>
      <point x="336" y="1009"/>
      <point x="287" y="961"/>
      <point x="276" y="911" type="curve"/>
      <point x="268" y="869"/>
      <point x="293" y="833"/>
      <point x="330" y="824" type="curve" smooth="yes"/>
      <point x="693" y="741" type="line"/>
      <point x="631" y="685"/>
      <point x="354" y="467"/>
      <point x="337" y="389" type="curve" smooth="yes"/>
      <point x="326" y="339"/>
      <point x="365" y="295"/>
      <point x="415" y="295" type="curve" smooth="yes"/>
      <point x="450" y="295"/>
      <point x="486" y="316"/>
      <point x="507" y="346" type="curve" smooth="yes"/>
      <point x="754" y="695" type="line"/>
      <point x="854" y="346" type="line" smooth="yes"/>
      <point x="863" y="316"/>
      <point x="890" y="295"/>
      <point x="924" y="295" type="curve" smooth="yes"/>
      <point x="974" y="295"/>
      <point x="1029" y="339"/>
      <point x="1040" y="389" type="curve" smooth="yes"/>
      <point x="1057" y="467"/>
      <point x="870" y="685"/>
      <point x="832" y="741" type="curve"/>
      <point x="1229" y="824" type="line" smooth="yes"/>
      <point x="1274" y="833"/>
      <point x="1313" y="869"/>
      <point x="1321" y="911" type="curve"/>
      <point x="1332" y="961"/>
      <point x="1303" y="1009"/>
      <point x="1251" y="1009" type="curve" smooth="yes"/>
      <point x="1192" y="1009"/>
      <point x="891" y="853"/>
      <point x="821" y="820" type="curve"/>
      <point x="864" y="946"/>
      <point x="929" y="1095"/>
    </contour>
  </outline>
</glyph>
<glyph name="plus" format="1">
  <advance width="1099"/>
  <unicode hex="002B"/>
  <outline>
    <contour>
      <point x="235" y="618" type="curve"/>
      <point x="224" y="568"/>
      <point x="220" y="535"/>
      <point x="263" y="505" type="curve"/>
      <point x="586" y="505" type="line"/>
      <point x="548" y="315" type="line"/>
      <point x="531" y="237"/>
      <point x="520" y="181"/>
      <point x="515" y="132" type="curve"/>
      <point x="533" y="130"/>
      <point x="552" y="129"/>
      <point x="574" y="129" type="curve" smooth="yes"/>
      <point x="594" y="129"/>
      <point x="614" y="130"/>
      <point x="633" y="132" type="curve"/>
      <point x="651" y="181"/>
      <point x="666" y="238"/>
      <point x="683" y="315" type="curve"/>
      <point x="721" y="505" type="line"/>
      <point x="910" y="505" type="line" smooth="yes"/>
      <point x="988" y="505"/>
      <point x="1046" y="506"/>
      <point x="1095" y="512" type="curve"/>
      <point x="1102" y="530"/>
      <point x="1108" y="549"/>
      <point x="1111" y="570" type="curve"/>
      <point x="1116" y="591"/>
      <point x="1119" y="611"/>
      <point x="1120" y="629" type="curve"/>
      <point x="1074" y="636"/>
      <point x="1016" y="639"/>
      <point x="939" y="639" type="curve" smooth="yes"/>
      <point x="750" y="639" type="line"/>
      <point x="789" y="830" type="line"/>
      <point x="806" y="906"/>
      <point x="816" y="964"/>
      <point x="820" y="1012" type="curve"/>
      <point x="802" y="1015"/>
      <point x="783" y="1015"/>
      <point x="762" y="1015" type="curve" smooth="yes"/>
      <point x="741" y="1015"/>
      <point x="720" y="1014"/>
      <point x="702" y="1012" type="curve"/>
      <point x="684" y="963"/>
      <point x="671" y="906"/>
      <point x="654" y="828" type="curve"/>
      <point x="615" y="639" type="line"/>
      <point x="424" y="639" type="line" smooth="yes"/>
      <point x="331" y="639"/>
      <point x="284" y="635"/>
    </contour>
  </outline>
</glyph>
<glyph name="comma" format="1">
  <advance width="524"/>
  <unicode hex="002C"/>
  <outline>
    <contour>
      <point x="94" y="-234" type="line"/>
      <point x="137" y="-210" type="line" smooth="yes"/>
      <point x="255" y="-144"/>
      <point x="389" y="-16"/>
      <point x="389" y="124" type="curve" smooth="yes"/>
      <point x="389" y="233"/>
      <point x="322" y="314"/>
      <point x="228" y="314" type="curve" smooth="yes"/>
      <point x="157" y="314"/>
      <point x="104" y="262"/>
      <point x="104" y="206" type="curve"/>
      <point x="118" y="165"/>
      <point x="157" y="80"/>
      <point x="157" y="46" type="curve" smooth="yes"/>
      <point x="157" y="-18"/>
      <point x="119" y="-31"/>
      <point x="38" y="-87" type="curve" smooth="yes"/>
      <point x="2" y="-112" type="line"/>
    </contour>
  </outline>
</glyph>
<glyph name="one" format="1">
  <advance width="744"/>
  <unicode hex="0031"/>
  <outline>
    <contour>
      <point x="184" y="226" type="line" smooth="yes"/>
      <point x="157" y="109"/>
      <point x="87" y="104"/>
      <point x="13" y="104" type="curve"/>
      <point x="-19" y="0" type="line"/>
      <point x="491" y="0" type="line"/>
      <point x="511" y="96"/>
      <point x="511" y="101"/>
      <point x="511" y="104" type="curve"/>
      <point x="404" y="104"/>
      <point x="366" y="130"/>
      <point x="361" y="173" type="curve"/>
      <point x="361" y="183"/>
      <point x="362" y="194"/>
      <point x="365" y="206" type="curve" smooth="yes"/>
      <point x="472" y="679" type="line" smooth="yes"/>
      <point x="498" y="796"/>
      <point x="568" y="801"/>
      <point x="644" y="801" type="curve"/>
      <point x="675" y="905" type="line"/>
      <point x="165" y="905" type="line"/>
      <point x="144" y="809"/>
      <point x="144" y="804"/>
      <point x="144" y="801" type="curve"/>
      <point x="260" y="801"/>
      <point x="293" y="771"/>
      <point x="293" y="723" type="curve" smooth="yes"/>
      <point x="293" y="715"/>
      <point x="292" y="707"/>
      <point x="291" y="698" type="curve"/>
    </contour>
  </outline>
</glyph>
<glyph name="four" format="1">
  <advance width="1151"/>
  <unicode hex="0034"/>
  <outline>
    <contour>
      <point x="513" y="118" type="line"/>
      <point x="404" y="-328" type="line"/>
      <point x="626" y="-328" type="line"/>
      <point x="669" y="-112"/>
      <point x="731" y="118"/>
      <point x="731" y="118" type="curve"/>
      <point x="972" y="117" type="line"/>
      <point x="1007" y="255" type="line"/>
      <point x="761" y="255" type="line"/>
      <point x="924" y="925" type="line"/>
      <point x="786" y="925" type="line" smooth="yes"/>
      <point x="724" y="925"/>
      <point x="715" y="914"/>
      <point x="660" y="859" type="curve" smooth="yes"/>
      <point x="45" y="246" type="line" smooth="yes"/>
      <point x="19" y="220"/>
      <point x="6" y="194"/>
      <point x="6" y="172" type="curve" smooth="yes"/>
      <point x="6" y="140"/>
      <point x="35" y="117"/>
      <point x="92" y="117" type="curve" smooth="yes"/>
      <point x="346" y="117" type="line"/>
    </contour>
    <contour>
      <point x="671" y="737" type="line"/>
      <point x="547" y="255" type="line"/>
      <point x="188" y="255" type="line"/>
    </contour>
  </outline>
</glyph>
<glyph name="eight" format="1">
  <advance width="1057"/>
  <unicode hex="0038"/>
  <outline>
    <contour>
      <point x="429" y="-20" type="curve" smooth="yes"/>
      <point x="630" y="-20"/>
      <point x="882" y="114"/>
      <point x="882" y="357" type="curve" smooth="yes"/>
      <point x="882" y="547"/>
      <point x="675" y="664"/>
      <point x="675" y="664" type="curve"/>
      <point x="675" y="664"/>
      <point x="972" y="802"/>
      <point x="972" y="1025" type="curve" smooth="yes"/>
      <point x="972" y="1182"/>
      <point x="865" y="1253"/>
      <point x="680" y="1253" type="curve" smooth="yes"/>
      <point x="418" y="1253"/>
      <point x="251" y="1070"/>
      <point x="251" y="916" type="curve" smooth="yes"/>
      <point x="251" y="751"/>
      <point x="444" y="638"/>
      <point x="444" y="638" type="curve"/>
      <point x="444" y="638"/>
      <point x="89" y="477"/>
      <point x="89" y="221" type="curve" smooth="yes"/>
      <point x="89" y="70"/>
      <point x="227" y="-20"/>
    </contour>
    <contour>
      <point x="509" y="574" type="curve"/>
      <point x="638" y="455"/>
      <point x="690" y="398"/>
      <point x="690" y="304" type="curve" smooth="yes"/>
      <point x="690" y="190"/>
      <point x="571" y="68"/>
      <point x="439" y="68" type="curve" smooth="yes"/>
      <point x="315" y="68"/>
      <point x="251" y="126"/>
      <point x="251" y="230" type="curve" smooth="yes"/>
      <point x="251" y="385"/>
      <point x="363" y="509"/>
    </contour>
    <contour>
      <point x="436" y="985" type="curve" smooth="yes"/>
      <point x="436" y="1110"/>
      <point x="563" y="1178"/>
      <point x="673" y="1178" type="curve" smooth="yes"/>
      <point x="771" y="1178"/>
      <point x="816" y="1110"/>
      <point x="816" y="1029" type="curve" smooth="yes"/>
      <point x="816" y="894"/>
      <point x="726" y="777"/>
      <point x="605" y="727" type="curve"/>
      <point x="506" y="822"/>
      <point x="436" y="867"/>
    </contour>
  </outline>
</glyph>
<glyph name="nine" format="1">
  <advance width="1045"/>
  <unicode hex="0039"/>
  <outline>
    <contour>
      <point x="916" y="881" type="curve" smooth="yes"/>
      <point x="916" y="1078"/>
      <point x="821" y="1253"/>
      <point x="556" y="1253" type="curve" smooth="yes"/>
      <point x="294" y="1253"/>
      <point x="90" y="984"/>
      <point x="90" y="751" type="curve" smooth="yes"/>
      <point x="90" y="586"/>
      <point x="186" y="453"/>
      <point x="377" y="453" type="curve" smooth="yes"/>
      <point x="484" y="453"/>
      <point x="577" y="497"/>
      <point x="662" y="567" type="curve"/>
      <point x="666" y="567" type="line"/>
      <point x="562" y="344"/>
      <point x="407" y="169"/>
      <point x="145" y="71" type="curve" smooth="yes"/>
      <point x="120" y="61"/>
      <point x="109" y="45"/>
      <point x="109" y="30" type="curve" smooth="yes"/>
      <point x="109" y="8"/>
      <point x="132" y="-14"/>
      <point x="165" y="-14" type="curve" smooth="yes"/>
      <point x="172" y="-14"/>
      <point x="179" y="-13"/>
      <point x="186" y="-11" type="curve" smooth="yes"/>
      <point x="576" y="85"/>
      <point x="916" y="513"/>
    </contour>
    <contour>
      <point x="429" y="548" type="curve" smooth="yes"/>
      <point x="321" y="548"/>
      <point x="287" y="631"/>
      <point x="287" y="695" type="curve" smooth="yes"/>
      <point x="287" y="858"/>
      <point x="359" y="1164"/>
      <point x="578" y="1164" type="curve" smooth="yes"/>
      <point x="700" y="1164"/>
      <point x="735" y="1070"/>
      <point x="735" y="977" type="curve" smooth="yes"/>
      <point x="735" y="816"/>
      <point x="635" y="548"/>
    </contour>
  </outline>
</glyph>
<glyph name="less" format="1">
  <advance width="626"/>
  <unicode hex="003C"/>
  <outline>
    <contour>
      <point x="481" y="18" type="curve" smooth="yes"/>
      <point x="510" y="18"/>
      <point x="531" y="42"/>
      <point x="537" y="69" type="curve" smooth="yes"/>
      <point x="554" y="144"/>
      <point x="345" y="482"/>
      <point x="310" y="553" type="curve"/>
      <point x="446" y="688"/>
      <point x="650" y="855"/>
      <point x="753" y="1009" type="curve"/>
      <point x="761" y="1047"/>
      <point x="726" y="1068"/>
      <point x="693" y="1068" type="curve"/>
      <point x="568" y="996"/>
      <point x="290" y="668"/>
      <point x="179" y="553" type="curve"/>
      <point x="415" y="59" type="line" smooth="yes"/>
      <point x="430" y="29"/>
      <point x="445" y="18"/>
    </contour>
  </outline>
</glyph>
<glyph name="equal" format="1">
  <advance width="845"/>
  <unicode hex="003D"/>
  <outline>
    <contour>
      <point x="730" y="729" type="curve"/>
      <point x="415" y="729" type="line" smooth="yes"/>
      <point x="380" y="729"/>
      <point x="284" y="738"/>
      <point x="273" y="684" type="curve" smooth="yes"/>
      <point x="260" y="625"/>
      <point x="360" y="637"/>
      <point x="399" y="637" type="curve" smooth="yes"/>
      <point x="711" y="637" type="line" smooth="yes"/>
      <point x="747" y="637"/>
      <point x="842" y="623"/>
      <point x="854" y="679" type="curve" smooth="yes"/>
      <point x="866" y="735"/>
      <point x="766" y="729"/>
    </contour>
    <contour>
      <point x="680" y="487" type="curve"/>
      <point x="365" y="487" type="line" smooth="yes"/>
      <point x="330" y="487"/>
      <point x="234" y="496"/>
      <point x="223" y="442" type="curve" smooth="yes"/>
      <point x="210" y="383"/>
      <point x="308" y="395"/>
      <point x="347" y="395" type="curve" smooth="yes"/>
      <point x="659" y="395" type="line" smooth="yes"/>
      <point x="695" y="395"/>
      <point x="792" y="381"/>
      <point x="804" y="437" type="curve" smooth="yes"/>
      <point x="816" y="493"/>
      <point x="716" y="487"/>
    </contour>
  </outline>
</glyph>
<glyph name="greater" format="1">
  <advance width="626"/>
  <unicode hex="003E"/>
  <outline>
    <contour>
      <point x="149" y="18" type="curve" smooth="yes"/>
      <point x="185" y="18"/>
      <point x="208" y="29"/>
      <point x="235" y="59" type="curve" smooth="yes"/>
      <point x="677" y="553" type="line"/>
      <point x="614" y="668"/>
      <point x="472" y="996"/>
      <point x="381" y="1068" type="curve"/>
      <point x="348" y="1068"/>
      <point x="303" y="1047"/>
      <point x="295" y="1009" type="curve"/>
      <point x="332" y="855"/>
      <point x="468" y="688"/>
      <point x="546" y="553" type="curve"/>
      <point x="478" y="480"/>
      <point x="132" y="145"/>
      <point x="115" y="69" type="curve" smooth="yes"/>
      <point x="109" y="42"/>
      <point x="120" y="18"/>
    </contour>
  </outline>
</glyph>
<glyph name="B" format="1">
  <advance width="1288"/>
  <unicode hex="0042"/>
  <outline>
    <contour>
      <point x="404" y="133" type="line"/>
      <point x="404" y="133"/>
      <point x="410" y="155"/>
      <point x="410" y="166" type="curve"/>
      <point x="615" y="1038" type="line" smooth="yes"/>
      <point x="636" y="1128"/>
      <point x="707" y="1130"/>
      <point x="780" y="1130" type="curve" smooth="yes"/>
      <point x="946" y="1130"/>
      <point x="1057" y="1060"/>
      <point x="1057" y="948" type="curve" smooth="yes"/>
      <point x="1057" y="790"/>
      <point x="879" y="725"/>
      <point x="687" y="725" type="curve" smooth="yes"/>
      <point x="656" y="725"/>
      <point x="638" y="699"/>
      <point x="638" y="672" type="curve" smooth="yes"/>
      <point x="638" y="643"/>
      <point x="661" y="616"/>
      <point x="706" y="616" type="curve" smooth="yes"/>
      <point x="823" y="616"/>
      <point x="1023" y="579"/>
      <point x="1023" y="389" type="curve" smooth="yes"/>
      <point x="1023" y="126"/>
      <point x="697" y="133"/>
      <point x="520" y="133" type="curve" smooth="yes"/>
    </contour>
    <contour>
      <point x="281" y="1234" type="line"/>
      <point x="260" y="1138"/>
      <point x="260" y="1133"/>
      <point x="260" y="1130" type="curve"/>
      <point x="376" y="1130"/>
      <point x="409" y="1100"/>
      <point x="409" y="1052" type="curve" smooth="yes"/>
      <point x="409" y="1044"/>
      <point x="408" y="1036"/>
      <point x="407" y="1027" type="curve"/>
      <point x="225" y="226" type="line" smooth="yes"/>
      <point x="198" y="109"/>
      <point x="128" y="104"/>
      <point x="54" y="104" type="curve"/>
      <point x="22" y="0" type="line"/>
      <point x="552" y="0" type="line" smooth="yes"/>
      <point x="970" y="0"/>
      <point x="1216" y="73"/>
      <point x="1216" y="370" type="curve" smooth="yes"/>
      <point x="1216" y="509"/>
      <point x="1112" y="621"/>
      <point x="976" y="666" type="curve"/>
      <point x="974" y="666"/>
      <point x="1254" y="724"/>
      <point x="1254" y="952" type="curve" smooth="yes"/>
      <point x="1254" y="1113"/>
      <point x="1113" y="1234"/>
      <point x="811" y="1234" type="curve" smooth="yes"/>
    </contour>
  </outline>
</glyph>
<glyph name="C" format="1">
  <advance width="1187"/>
  <unicode hex="0043"/>
  <outline>
    <contour>
      <point x="701" y="1225" type="curve" smooth="yes"/>
      <point x="346" y="1225"/>
      <point x="45" y="917"/>
      <point x="45" y="558" type="curve" smooth="yes"/>
      <point x="45" y="187"/>
      <point x="295" y="-21"/>
      <point x="543" y="-21" type="curve" smooth="yes"/>
      <point x="758" y="-21"/>
      <point x="992" y="101"/>
      <point x="1114" y="317" type="curve"/>
      <point x="1008" y="400" type="line"/>
      <point x="926" y="240"/>
      <point x="737" y="122"/>
      <point x="571" y="122" type="curve" smooth="yes"/>
      <point x="351" y="122"/>
      <point x="262" y="287"/>
      <point x="262" y="493" type="curve" smooth="yes"/>
      <point x="262" y="816"/>
      <point x="475" y="1104"/>
      <point x="727" y="1104" type="curve" smooth="yes"/>
      <point x="884" y="1104"/>
      <point x="961" y="1020"/>
      <point x="975" y="923" type="curve" smooth="yes"/>
      <point x="988" y="836"/>
      <point x="1039" y="798"/>
      <point x="1087" y="798" type="curve" smooth="yes"/>
      <point x="1133" y="798"/>
      <point x="1175" y="833"/>
      <point x="1175" y="892" type="curve" smooth="yes"/>
      <point x="1175" y="1097"/>
      <point x="960" y="1225"/>
    </contour>
  </outline>
</glyph>
<glyph name="E" format="1">
  <advance width="1281"/>
  <unicode hex="0045"/>
  <outline>
    <contour>
      <point x="483" y="601" type="line"/>
      <point x="784" y="601" type="line" smooth="yes"/>
      <point x="857" y="601"/>
      <point x="868" y="471"/>
      <point x="869" y="458" type="curve"/>
      <point x="943" y="458" type="line"/>
      <point x="1042" y="822" type="line"/>
      <point x="961" y="822" type="line"/>
      <point x="961" y="822"/>
      <point x="925" y="706"/>
      <point x="801" y="706" type="curve" smooth="yes"/>
      <point x="506" y="706" type="line"/>
    </contour>
    <contour>
      <point x="277" y="1234" type="line" smooth="yes"/>
      <point x="254" y="1234"/>
      <point x="240" y="1194"/>
      <point x="240" y="1166" type="curve" smooth="yes"/>
      <point x="240" y="1147"/>
      <point x="245" y="1131"/>
      <point x="264" y="1131" type="curve" smooth="yes"/>
      <point x="325" y="1131"/>
      <point x="389" y="1128"/>
      <point x="389" y="1061" type="curve" smooth="yes"/>
      <point x="389" y="1046"/>
      <point x="385" y="1029"/>
      <point x="382" y="1009" type="curve"/>
      <point x="205" y="226" type="line"/>
      <point x="182" y="109"/>
      <point x="120" y="104"/>
      <point x="54" y="104" type="curve" smooth="yes"/>
      <point x="31" y="104"/>
      <point x="17" y="63"/>
      <point x="17" y="35" type="curve" smooth="yes"/>
      <point x="17" y="16"/>
      <point x="22" y="0"/>
      <point x="41" y="0" type="curve"/>
      <point x="1057" y="0" type="line"/>
      <point x="1168" y="300" type="line"/>
      <point x="1170" y="304"/>
      <point x="1170" y="308"/>
      <point x="1170" y="312" type="curve" smooth="yes"/>
      <point x="1168" y="326"/>
      <point x="1117" y="326"/>
      <point x="1063" y="326" type="curve" smooth="yes"/>
      <point x="1043" y="326"/>
      <point x="1016" y="318"/>
      <point x="1013" y="300" type="curve" smooth="yes"/>
      <point x="980" y="183"/>
      <point x="897" y="104"/>
      <point x="748" y="104" type="curve" smooth="yes"/>
      <point x="427" y="104" type="line" smooth="yes"/>
      <point x="411" y="104"/>
      <point x="394" y="106"/>
      <point x="394" y="138" type="curve" smooth="yes"/>
      <point x="394" y="145"/>
      <point x="395" y="154"/>
      <point x="398" y="166" type="curve" smooth="yes"/>
      <point x="602" y="1068" type="line"/>
      <point x="614" y="1126"/>
      <point x="640" y="1130"/>
      <point x="659" y="1130" type="curve" smooth="yes"/>
      <point x="990" y="1130" type="line" smooth="yes"/>
      <point x="1081" y="1130"/>
      <point x="1097" y="1062"/>
      <point x="1129" y="924" type="curve" smooth="yes"/>
      <point x="1136" y="902"/>
      <point x="1161" y="894"/>
      <point x="1185" y="894" type="curve" smooth="yes"/>
      <point x="1221" y="894"/>
      <point x="1258" y="918"/>
      <point x="1258" y="934" type="curve"/>
      <point x="1257" y="1234" type="line"/>
    </contour>
  </outline>
</glyph>
<glyph name="F" format="1">
  <advance width="1294"/>
  <unicode hex="0046"/>
  <outline>
    <contour>
      <point x="490" y="557" type="line"/>
      <point x="837" y="557" type="line" smooth="yes"/>
      <point x="909" y="557"/>
      <point x="921" y="418"/>
      <point x="921" y="404" type="curve"/>
      <point x="1005" y="404" type="line"/>
      <point x="1101" y="768" type="line"/>
      <point x="1004" y="768" type="line"/>
      <point x="1004" y="768"/>
      <point x="967" y="652"/>
      <point x="843" y="652" type="curve" smooth="yes"/>
      <point x="502" y="652" type="line"/>
    </contour>
    <contour>
      <point x="965" y="1130" type="line" smooth="yes"/>
      <point x="1056" y="1130"/>
      <point x="1072" y="1062"/>
      <point x="1104" y="924" type="curve"/>
      <point x="1111" y="902"/>
      <point x="1136" y="894"/>
      <point x="1160" y="894" type="curve" smooth="yes"/>
      <point x="1196" y="894"/>
      <point x="1233" y="918"/>
      <point x="1233" y="934" type="curve" smooth="yes"/>
      <point x="1233" y="1234" type="line"/>
      <point x="300" y="1234" type="line"/>
      <point x="275" y="1130" type="line"/>
      <point x="344" y="1130"/>
      <point x="411" y="1127"/>
      <point x="411" y="1056" type="curve" smooth="yes"/>
      <point x="411" y="1042"/>
      <point x="406" y="1027"/>
      <point x="403" y="1008" type="curve"/>
      <point x="225" y="226" type="line" smooth="yes"/>
      <point x="198" y="109"/>
      <point x="128" y="104"/>
      <point x="54" y="104" type="curve"/>
      <point x="22" y="0" type="line"/>
      <point x="552" y="0" type="line"/>
      <point x="572" y="96"/>
      <point x="572" y="101"/>
      <point x="572" y="104" type="curve"/>
      <point x="465" y="104"/>
      <point x="427" y="130"/>
      <point x="422" y="173" type="curve"/>
      <point x="422" y="183"/>
      <point x="423" y="194"/>
      <point x="426" y="206" type="curve" smooth="yes"/>
      <point x="623" y="1068" type="line"/>
      <point x="635" y="1126"/>
      <point x="661" y="1130"/>
      <point x="680" y="1130" type="curve" smooth="yes"/>
    </contour>
  </outline>
</glyph>
<glyph name="M" format="1">
  <advance width="1852"/>
  <unicode hex="004D"/>
  <outline>
    <contour>
      <point x="851" y="308" type="line"/>
      <point x="770" y="1235" type="line"/>
      <point x="282" y="1234" type="line"/>
      <point x="261" y="1138"/>
      <point x="261" y="1133"/>
      <point x="261" y="1130" type="curve"/>
      <point x="377" y="1130"/>
      <point x="410" y="1100"/>
      <point x="410" y="1052" type="curve" smooth="yes"/>
      <point x="410" y="1044"/>
      <point x="409" y="1035"/>
      <point x="408" y="1027" type="curve"/>
      <point x="225" y="226" type="line" smooth="yes"/>
      <point x="198" y="109"/>
      <point x="128" y="104"/>
      <point x="54" y="104" type="curve"/>
      <point x="22" y="0" type="line"/>
      <point x="522" y="0" type="line"/>
      <point x="542" y="96"/>
      <point x="542" y="101"/>
      <point x="542" y="104" type="curve"/>
      <point x="435" y="104"/>
      <point x="397" y="130"/>
      <point x="392" y="173" type="curve"/>
      <point x="392" y="183"/>
      <point x="392" y="194"/>
      <point x="396" y="206" type="curve"/>
      <point x="602" y="1063" type="line"/>
      <point x="721" y="84" type="line" smooth="yes"/>
      <point x="727" y="32"/>
      <point x="755" y="8"/>
      <point x="783" y="8" type="curve" smooth="yes"/>
      <point x="808" y="8"/>
      <point x="838" y="28"/>
      <point x="859" y="63" type="curve" smooth="yes"/>
      <point x="1452" y="1062" type="line"/>
      <point x="1251" y="226" type="line"/>
      <point x="1224" y="109"/>
      <point x="1154" y="104"/>
      <point x="1078" y="104" type="curve"/>
      <point x="1048" y="0" type="line"/>
      <point x="1568" y="0" type="line"/>
      <point x="1588" y="96"/>
      <point x="1588" y="101"/>
      <point x="1588" y="104" type="curve"/>
      <point x="1480" y="104"/>
      <point x="1443" y="130"/>
      <point x="1438" y="173" type="curve"/>
      <point x="1438" y="183"/>
      <point x="1439" y="194"/>
      <point x="1442" y="206" type="curve" smooth="yes"/>
      <point x="1625" y="1008" type="line" smooth="yes"/>
      <point x="1652" y="1125"/>
      <point x="1721" y="1130"/>
      <point x="1797" y="1130" type="curve"/>
      <point x="1828" y="1234" type="line"/>
      <point x="1368" y="1234" type="line"/>
    </contour>
  </outline>
</glyph>
<glyph name="N" format="1">
  <advance width="1608"/>
  <unicode hex="004E"/>
  <outline>
    <contour>
      <point x="59" y="104" type="curve" smooth="yes"/>
      <point x="36" y="104"/>
      <point x="22" y="63"/>
      <point x="22" y="35" type="curve" smooth="yes"/>
      <point x="22" y="16"/>
      <point x="28" y="0"/>
      <point x="46" y="0" type="curve" smooth="yes"/>
      <point x="508" y="0" type="line" smooth="yes"/>
      <point x="533" y="0"/>
      <point x="540" y="31"/>
      <point x="540" y="59" type="curve" smooth="yes"/>
      <point x="540" y="82"/>
      <point x="537" y="104"/>
      <point x="522" y="104" type="curve" smooth="yes"/>
      <point x="421" y="104"/>
      <point x="387" y="130"/>
      <point x="382" y="173" type="curve"/>
      <point x="382" y="183"/>
      <point x="383" y="194"/>
      <point x="386" y="206" type="curve" smooth="yes"/>
      <point x="578" y="1048" type="line"/>
      <point x="984" y="0" type="line" smooth="yes"/>
      <point x="998" y="-12"/>
      <point x="1038" y="-19"/>
      <point x="1076" y="-19" type="curve" smooth="yes"/>
      <point x="1110" y="-19"/>
      <point x="1143" y="-13"/>
      <point x="1152" y="0" type="curve" smooth="yes"/>
      <point x="1381" y="1008" type="line"/>
      <point x="1404" y="1125"/>
      <point x="1465" y="1130"/>
      <point x="1533" y="1130" type="curve" smooth="yes"/>
      <point x="1558" y="1130"/>
      <point x="1564" y="1161"/>
      <point x="1564" y="1189" type="curve" smooth="yes"/>
      <point x="1564" y="1212"/>
      <point x="1562" y="1234"/>
      <point x="1547" y="1234" type="curve" smooth="yes"/>
      <point x="1079" y="1234" type="line" smooth="yes"/>
      <point x="1064" y="1234"/>
      <point x="1062" y="1212"/>
      <point x="1062" y="1189" type="curve" smooth="yes"/>
      <point x="1062" y="1161"/>
      <point x="1068" y="1130"/>
      <point x="1093" y="1130" type="curve" smooth="yes"/>
      <point x="1193" y="1130"/>
      <point x="1222" y="1100"/>
      <point x="1222" y="1052" type="curve" smooth="yes"/>
      <point x="1222" y="1044"/>
      <point x="1221" y="1036"/>
      <point x="1220" y="1027" type="curve"/>
      <point x="1055" y="305" type="line"/>
      <point x="712" y="1234" type="line"/>
      <point x="276" y="1234" type="line" smooth="yes"/>
      <point x="256" y="1234"/>
      <point x="247" y="1191"/>
      <point x="247" y="1163" type="curve" smooth="yes"/>
      <point x="247" y="1145"/>
      <point x="253" y="1130"/>
      <point x="270" y="1130" type="curve" smooth="yes"/>
      <point x="370" y="1130"/>
      <point x="410" y="1100"/>
      <point x="410" y="1052" type="curve" smooth="yes"/>
      <point x="410" y="1044"/>
      <point x="409" y="1036"/>
      <point x="408" y="1027" type="curve"/>
      <point x="225" y="226" type="line" smooth="yes"/>
      <point x="198" y="109"/>
      <point x="133" y="104"/>
    </contour>
  </outline>
</glyph>
<glyph name="P" format="1">
  <advance width="1280"/>
  <unicode hex="0050"/>
  <outline>
    <contour>
      <point x="695" y="576" type="curve" smooth="yes"/>
      <point x="1101" y="576"/>
      <point x="1252" y="752"/>
      <point x="1252" y="902" type="curve" smooth="yes"/>
      <point x="1252" y="1063"/>
      <point x="1146" y="1230"/>
      <point x="519" y="1234" type="curve"/>
      <point x="250" y="1234" type="line"/>
      <point x="229" y="1130" type="line"/>
      <point x="315" y="1129"/>
      <point x="420" y="1131"/>
      <point x="420" y="1056" type="curve" smooth="yes"/>
      <point x="420" y="1047"/>
      <point x="419" y="1038"/>
      <point x="416" y="1027" type="curve" smooth="yes"/>
      <point x="235" y="226" type="line"/>
      <point x="206" y="109"/>
      <point x="132" y="104"/>
      <point x="54" y="104" type="curve"/>
      <point x="22" y="0" type="line"/>
      <point x="572" y="0" type="line"/>
      <point x="592" y="96"/>
      <point x="592" y="101"/>
      <point x="592" y="104" type="curve"/>
      <point x="478" y="104"/>
      <point x="437" y="130"/>
      <point x="432" y="173" type="curve"/>
      <point x="432" y="183"/>
      <point x="433" y="194"/>
      <point x="436" y="206" type="curve" smooth="yes"/>
      <point x="644" y="1130" type="line"/>
      <point x="974" y="1130"/>
      <point x="1035" y="980"/>
      <point x="1035" y="905" type="curve" smooth="yes"/>
      <point x="1035" y="825"/>
      <point x="974" y="680"/>
      <point x="676" y="680" type="curve" smooth="yes"/>
      <point x="647" y="680"/>
      <point x="630" y="656"/>
      <point x="630" y="632" type="curve" smooth="yes"/>
      <point x="630" y="603"/>
      <point x="647" y="576"/>
    </contour>
  </outline>
</glyph>
<glyph name="S" format="1">
  <advance width="1026"/>
  <unicode hex="0053"/>
  <outline>
    <contour>
      <point x="265" y="87" type="curve" smooth="yes"/>
      <point x="362" y="87"/>
      <point x="472" y="-21"/>
      <point x="587" y="-21" type="curve" smooth="yes"/>
      <point x="773" y="-21"/>
      <point x="904" y="80"/>
      <point x="904" y="253" type="curve" smooth="yes"/>
      <point x="904" y="602"/>
      <point x="473" y="685"/>
      <point x="430" y="936" type="curve" smooth="yes"/>
      <point x="428" y="945"/>
      <point x="427" y="952"/>
      <point x="427" y="959" type="curve" smooth="yes"/>
      <point x="427" y="1027"/>
      <point x="485" y="1055"/>
      <point x="557" y="1055" type="curve" smooth="yes"/>
      <point x="766" y="1055"/>
      <point x="844" y="800"/>
      <point x="967" y="800" type="curve" smooth="yes"/>
      <point x="993" y="800"/>
      <point x="998" y="803"/>
      <point x="998" y="852" type="curve" smooth="yes"/>
      <point x="998" y="937"/>
      <point x="994" y="979"/>
      <point x="979" y="1064" type="curve" smooth="yes"/>
      <point x="977" y="1076"/>
      <point x="968" y="1127"/>
      <point x="965" y="1138" type="curve"/>
      <point x="941" y="1166"/>
      <point x="904" y="1182"/>
      <point x="872" y="1182" type="curve" smooth="yes"/>
      <point x="833" y="1182"/>
      <point x="838" y="1137"/>
      <point x="799" y="1137" type="curve" smooth="yes"/>
      <point x="709" y="1137"/>
      <point x="626" y="1223"/>
      <point x="531" y="1223" type="curve" smooth="yes"/>
      <point x="357" y="1223"/>
      <point x="221" y="1122"/>
      <point x="221" y="958" type="curve" smooth="yes"/>
      <point x="221" y="654"/>
      <point x="649" y="555"/>
      <point x="694" y="295" type="curve"/>
      <point x="694" y="286"/>
      <point x="697" y="277"/>
      <point x="697" y="267" type="curve" smooth="yes"/>
      <point x="697" y="185"/>
      <point x="623" y="147"/>
      <point x="543" y="147" type="curve" smooth="yes"/>
      <point x="302" y="147"/>
      <point x="222" y="446"/>
      <point x="74" y="446" type="curve" smooth="yes"/>
      <point x="56" y="446"/>
      <point x="41" y="446"/>
      <point x="41" y="415" type="curve" smooth="yes"/>
      <point x="41" y="360"/>
      <point x="64" y="168"/>
      <point x="68" y="127" type="curve" smooth="yes"/>
      <point x="74" y="57"/>
      <point x="118" y="41"/>
      <point x="168" y="41" type="curve" smooth="yes"/>
      <point x="223" y="41"/>
      <point x="218" y="87"/>
    </contour>
  </outline>
</glyph>
<glyph name="T" format="1">
  <advance width="1270"/>
  <unicode hex="0054"/>
  <outline>
    <contour>
      <point x="109" y="1234" type="line"/>
      <point x="40" y="934" type="line" smooth="yes"/>
      <point x="39" y="931"/>
      <point x="38" y="929"/>
      <point x="38" y="926" type="curve" smooth="yes"/>
      <point x="38" y="907"/>
      <point x="66" y="884"/>
      <point x="105" y="884" type="curve" smooth="yes"/>
      <point x="125" y="884"/>
      <point x="153" y="895"/>
      <point x="172" y="924" type="curve"/>
      <point x="253" y="1062"/>
      <point x="294" y="1130"/>
      <point x="324" y="1130" type="curve" smooth="yes"/>
      <point x="544" y="1130" type="line"/>
      <point x="341" y="226" type="line" smooth="yes"/>
      <point x="315" y="109"/>
      <point x="243" y="104"/>
      <point x="168" y="104" type="curve"/>
      <point x="138" y="0" type="line"/>
      <point x="684" y="0" type="line"/>
      <point x="704" y="96"/>
      <point x="704" y="101"/>
      <point x="704" y="104" type="curve"/>
      <point x="597" y="104"/>
      <point x="559" y="130"/>
      <point x="554" y="173" type="curve"/>
      <point x="554" y="183"/>
      <point x="555" y="195"/>
      <point x="558" y="207" type="curve" smooth="yes"/>
      <point x="768" y="1130" type="line"/>
      <point x="980" y="1130" type="line" smooth="yes"/>
      <point x="1010" y="1130"/>
      <point x="1020" y="1062"/>
      <point x="1039" y="924" type="curve"/>
      <point x="1046" y="895"/>
      <point x="1069" y="884"/>
      <point x="1089" y="884" type="curve" smooth="yes"/>
      <point x="1134" y="884"/>
      <point x="1178" y="914"/>
      <point x="1178" y="934" type="curve"/>
      <point x="1242" y="1234" type="line"/>
    </contour>
  </outline>
</glyph>
<glyph name="W" format="1">
  <advance width="2035"/>
  <unicode hex="0057"/>
  <outline>
    <contour>
      <point x="273" y="91" type="curve" smooth="yes"/>
      <point x="276" y="74"/>
      <point x="283" y="33"/>
      <point x="285" y="32" type="curve" smooth="yes"/>
      <point x="310" y="11" type="line"/>
      <point x="499" y="11" type="line" smooth="yes"/>
      <point x="502" y="11"/>
      <point x="541" y="54"/>
      <point x="550" y="74" type="curve"/>
      <point x="646" y="227"/>
      <point x="775" y="527"/>
      <point x="930" y="683" type="curve"/>
      <point x="932" y="665"/>
      <point x="947" y="577"/>
      <point x="951" y="557" type="curve" smooth="yes"/>
      <point x="977" y="404"/>
      <point x="978" y="253"/>
      <point x="1006" y="99" type="curve" smooth="yes"/>
      <point x="1009" y="80"/>
      <point x="1020" y="33"/>
      <point x="1021" y="32" type="curve" smooth="yes"/>
      <point x="1047" y="11" type="line" smooth="yes"/>
      <point x="1050" y="9"/>
      <point x="1098" y="8"/>
      <point x="1115" y="8" type="curve" smooth="yes"/>
      <point x="1352" y="8"/>
      <point x="1495" y="449"/>
      <point x="1608" y="642" type="curve" smooth="yes"/>
      <point x="1655" y="722"/>
      <point x="1804" y="971"/>
      <point x="1821" y="1000" type="curve" smooth="yes"/>
      <point x="1857" y="1061"/>
      <point x="2007" y="1020"/>
      <point x="2007" y="1116" type="curve" smooth="yes"/>
      <point x="2007" y="1137"/>
      <point x="1976" y="1189"/>
      <point x="1933" y="1189" type="curve"/>
      <point x="1516" y="1169" type="line" smooth="yes"/>
      <point x="1509" y="1169"/>
      <point x="1485" y="1138"/>
      <point x="1480" y="1126" type="curve" smooth="yes"/>
      <point x="1479" y="1122"/>
      <point x="1479" y="1116"/>
      <point x="1479" y="1110" type="curve" smooth="yes"/>
      <point x="1479" y="1086"/>
      <point x="1482" y="1053"/>
      <point x="1482" y="1053" type="curve"/>
      <point x="1594" y="1053" type="line"/>
      <point x="1595" y="1053"/>
      <point x="1609" y="1014"/>
      <point x="1609" y="999" type="curve" smooth="yes"/>
      <point x="1609" y="894"/>
      <point x="1290" y="417"/>
      <point x="1201" y="326" type="curve"/>
      <point x="1176" y="347" type="line"/>
      <point x="1174" y="350"/>
      <point x="1164" y="391"/>
      <point x="1162" y="406" type="curve" smooth="yes"/>
      <point x="1136" y="563"/>
      <point x="1117" y="736"/>
      <point x="1117" y="899" type="curve" smooth="yes"/>
      <point x="1117" y="941"/>
      <point x="1118" y="982"/>
      <point x="1121" y="1021" type="curve" smooth="yes"/>
      <point x="1127" y="1096"/>
      <point x="1270" y="1032"/>
      <point x="1270" y="1127" type="curve" smooth="yes"/>
      <point x="1270" y="1183"/>
      <point x="1234" y="1190"/>
      <point x="1195" y="1190" type="curve" smooth="yes"/>
      <point x="1056" y="1190"/>
      <point x="943" y="1181"/>
      <point x="801" y="1169" type="curve"/>
      <point x="774" y="1156"/>
      <point x="765" y="1138"/>
      <point x="765" y="1116" type="curve" smooth="yes"/>
      <point x="765" y="995"/>
      <point x="887" y="1098"/>
      <point x="897" y="979" type="curve"/>
      <point x="806" y="797"/>
      <point x="699" y="621"/>
      <point x="591" y="453" type="curve" smooth="yes"/>
      <point x="562" y="407"/>
      <point x="489" y="304"/>
      <point x="489" y="304" type="curve"/>
      <point x="451" y="304" type="line"/>
      <point x="448" y="315"/>
      <point x="437" y="359"/>
      <point x="436" y="368" type="curve" smooth="yes"/>
      <point x="430" y="456"/>
      <point x="400" y="870"/>
      <point x="395" y="958" type="curve"/>
      <point x="396" y="1086"/>
      <point x="553" y="1017"/>
      <point x="553" y="1123" type="curve" smooth="yes"/>
      <point x="553" y="1133" type="line" smooth="yes"/>
      <point x="553" y="1136"/>
      <point x="550" y="1169"/>
      <point x="526" y="1169" type="curve" smooth="yes"/>
      <point x="67" y="1169" type="line" smooth="yes"/>
      <point x="45" y="1169"/>
      <point x="39" y="1126"/>
      <point x="39" y="1096" type="curve" smooth="yes"/>
      <point x="39" y="1089"/>
      <point x="40" y="1084"/>
      <point x="40" y="1079" type="curve" smooth="yes"/>
      <point x="43" y="1042"/>
      <point x="160" y="1021"/>
      <point x="173" y="1021" type="curve"/>
      <point x="178" y="1008"/>
      <point x="188" y="949"/>
      <point x="191" y="936" type="curve" smooth="yes"/>
      <point x="243" y="657"/>
      <point x="226" y="376"/>
    </contour>
  </outline>
</glyph>
<glyph name="X" format="1">
  <advance width="1505"/>
  <unicode hex="0058"/>
  <outline>
    <contour>
      <point x="31" y="80" type="curve"/>
      <point x="41" y="16"/>
      <point x="85" y="9"/>
      <point x="149" y="9" type="curve"/>
      <point x="208" y="12"/>
      <point x="487" y="25"/>
      <point x="545" y="31" type="curve"/>
      <point x="556" y="44"/>
      <point x="559" y="57"/>
      <point x="559" y="72" type="curve" smooth="yes"/>
      <point x="559" y="161"/>
      <point x="490" y="144"/>
      <point x="490" y="215" type="curve" smooth="yes"/>
      <point x="490" y="234"/>
      <point x="502" y="238"/>
      <point x="526" y="262" type="curve" smooth="yes"/>
      <point x="552" y="288"/>
      <point x="679" y="404"/>
      <point x="707" y="430" type="curve"/>
      <point x="710" y="430"/>
      <point x="725" y="433"/>
      <point x="728" y="433" type="curve" smooth="yes"/>
      <point x="794" y="433"/>
      <point x="877" y="243"/>
      <point x="877" y="198" type="curve" smooth="yes"/>
      <point x="877" y="147"/>
      <point x="771" y="141"/>
      <point x="771" y="64" type="curve" smooth="yes"/>
      <point x="771" y="15"/>
      <point x="785" y="9"/>
      <point x="844" y="9" type="curve" smooth="yes"/>
      <point x="1285" y="9" type="line" smooth="yes"/>
      <point x="1309" y="9"/>
      <point x="1314" y="45"/>
      <point x="1314" y="76" type="curve" smooth="yes"/>
      <point x="1314" y="212"/>
      <point x="1205" y="139"/>
      <point x="1148" y="198" type="curve" smooth="yes"/>
      <point x="1072" y="276"/>
      <point x="909" y="494"/>
      <point x="909" y="595" type="curve" smooth="yes"/>
      <point x="909" y="718"/>
      <point x="1477" y="1078"/>
      <point x="1477" y="1082" type="curve" smooth="yes"/>
      <point x="1475" y="1098"/>
      <point x="1470" y="1172"/>
      <point x="1468" y="1188" type="curve"/>
      <point x="996" y="1188" type="line" smooth="yes"/>
      <point x="972" y="1188"/>
      <point x="966" y="1148"/>
      <point x="966" y="1118" type="curve" smooth="yes"/>
      <point x="966" y="1021"/>
      <point x="1043" y="1069"/>
      <point x="1050" y="998" type="curve"/>
      <point x="962" y="920"/>
      <point x="840" y="787"/>
      <point x="802" y="787" type="curve" smooth="yes"/>
      <point x="725" y="787"/>
      <point x="668" y="961"/>
      <point x="668" y="1005" type="curve" smooth="yes"/>
      <point x="668" y="1079"/>
      <point x="777" y="1018"/>
      <point x="777" y="1138" type="curve" smooth="yes"/>
      <point x="777" y="1152"/>
      <point x="775" y="1168"/>
      <point x="772" y="1188" type="curve"/>
      <point x="259" y="1188" type="line" smooth="yes"/>
      <point x="231" y="1188"/>
      <point x="224" y="1163"/>
      <point x="224" y="1139" type="curve" smooth="yes"/>
      <point x="224" y="992"/>
      <point x="361" y="1077"/>
      <point x="421" y="978" type="curve" smooth="yes"/>
      <point x="600" y="682" type="line"/>
      <point x="603" y="679"/>
      <point x="611" y="643"/>
      <point x="611" y="638" type="curve" smooth="yes"/>
      <point x="611" y="634" type="line" smooth="yes"/>
      <point x="611" y="532"/>
      <point x="245" y="228"/>
      <point x="119" y="177" type="curve" smooth="yes"/>
      <point x="77" y="160"/>
      <point x="26" y="173"/>
      <point x="26" y="119" type="curve" smooth="yes"/>
      <point x="26" y="106"/>
      <point x="28" y="91"/>
    </contour>
  </outline>
</glyph>
<glyph name="Z" format="1">
  <advance width="1105"/>
  <unicode hex="005A"/>
  <outline>
    <contour>
      <point x="134" y="104" type="line"/>
      <point x="102" y="0" type="line"/>
      <point x="1034" y="0" type="line"/>
      <point x="1146" y="300" type="line" smooth="yes"/>
      <point x="1148" y="304"/>
      <point x="1148" y="308"/>
      <point x="1148" y="312" type="curve" smooth="yes"/>
      <point x="1146" y="326"/>
      <point x="1095" y="326"/>
      <point x="1041" y="326" type="curve" smooth="yes"/>
      <point x="1021" y="326"/>
      <point x="994" y="318"/>
      <point x="991" y="300" type="curve"/>
      <point x="958" y="183"/>
      <point x="875" y="104"/>
      <point x="726" y="104" type="curve" smooth="yes"/>
    </contour>
    <contour>
      <point x="1260" y="1128" type="line"/>
      <point x="1292" y="1232" type="line"/>
      <point x="360" y="1232" type="line"/>
      <point x="248" y="932" type="line" smooth="yes"/>
      <point x="246" y="928"/>
      <point x="246" y="924"/>
      <point x="246" y="920" type="curve" smooth="yes"/>
      <point x="248" y="906"/>
      <point x="299" y="906"/>
      <point x="353" y="906" type="curve" smooth="yes"/>
      <point x="373" y="906"/>
      <point x="400" y="914"/>
      <point x="403" y="932" type="curve"/>
      <point x="436" y="1049"/>
      <point x="519" y="1128"/>
      <point x="668" y="1128" type="curve"/>
    </contour>
  </outline>
</glyph>
<glyph name="bracketleft" format="1">
  <advance width="883"/>
  <unicode hex="005B"/>
  <outline>
    <contour>
      <point x="721" y="1307" type="curve"/>
      <point x="413" y="1283" type="line"/>
      <point x="48" y="-275" type="line"/>
      <point x="411" y="-296" type="line" smooth="yes"/>
      <point x="462" y="-299"/>
      <point x="482" y="-234"/>
      <point x="482" y="-206" type="curve" smooth="yes"/>
      <point x="482" y="-189"/>
      <point x="473" y="-176"/>
      <point x="454" y="-169" type="curve" smooth="yes"/>
      <point x="433" y="-160"/>
      <point x="329" y="-132"/>
      <point x="306" y="-127" type="curve"/>
      <point x="594" y="1129" type="line"/>
      <point x="760" y="1159"/>
      <point x="799" y="1158"/>
      <point x="799" y="1241" type="curve" smooth="yes"/>
      <point x="799" y="1289"/>
      <point x="763" y="1307"/>
    </contour>
  </outline>
</glyph>
<glyph name="backslash" format="1">
  <advance width="689"/>
  <unicode hex="005C"/>
  <outline>
    <contour>
      <point x="306" y="1378" type="curve"/>
      <point x="346" y="928"/>
      <point x="453" y="498"/>
      <point x="511" y="53" type="curve" smooth="yes"/>
      <point x="518" y="-3"/>
      <point x="527" y="-58"/>
      <point x="543" y="-112" type="curve"/>
      <point x="559" y="-117"/>
      <point x="579" y="-117"/>
      <point x="598" y="-117" type="curve" smooth="yes"/>
      <point x="617" y="-117" type="line"/>
      <point x="624" y="-58"/>
      <point x="640" y="17"/>
      <point x="631" y="72" type="curve" smooth="yes"/>
      <point x="454" y="1142" type="line" smooth="yes"/>
      <point x="439" y="1229"/>
      <point x="446" y="1336"/>
      <point x="390" y="1402" type="curve"/>
      <point x="361" y="1402"/>
      <point x="332" y="1396"/>
    </contour>
  </outline>
</glyph>
<glyph name="underscore" format="1">
  <advance width="935"/>
  <unicode hex="005F"/>
  <outline>
    <contour>
      <point x="864" y="-129" type="curve"/>
      <point x="872" y="-88"/>
      <point x="856" y="-65"/>
      <point x="824" y="-49" type="curve"/>
      <point x="185" y="-49" type="line" smooth="yes"/>
      <point x="136" y="-49"/>
      <point x="78" y="-49"/>
      <point x="28" y="-68" type="curve"/>
      <point x="20" y="-112"/>
      <point x="34" y="-131"/>
      <point x="69" y="-147" type="curve"/>
      <point x="735" y="-147" type="line" smooth="yes"/>
      <point x="777" y="-147"/>
      <point x="826" y="-145"/>
    </contour>
  </outline>
</glyph>
<glyph name="grave" format="1">
  <advance width="968"/>
  <unicode hex="0060"/>
  <outline>
    <contour>
      <point x="554" y="1442" type="curve"/>
      <point x="637" y="1349"/>
      <point x="786" y="1177"/>
      <point x="840" y="1116" type="curve"/>
      <point x="854" y="1102"/>
      <point x="868" y="1096"/>
      <point x="878" y="1096" type="curve" smooth="yes"/>
      <point x="893" y="1096"/>
      <point x="902" y="1107"/>
      <point x="906" y="1122" type="curve"/>
      <point x="907" y="1131"/>
      <point x="905" y="1142"/>
      <point x="901" y="1152" type="curve"/>
      <point x="842" y="1262"/>
      <point x="741" y="1449"/>
      <point x="694" y="1536" type="curve" smooth="yes"/>
      <point x="682" y="1560"/>
      <point x="661" y="1570"/>
      <point x="640" y="1570" type="curve" smooth="yes"/>
      <point x="598" y="1570"/>
      <point x="551" y="1528"/>
      <point x="542" y="1488" type="curve" smooth="yes"/>
      <point x="539" y="1471"/>
      <point x="541" y="1455"/>
    </contour>
  </outline>
</glyph>
<glyph name="a" format="1">
  <advance width="1223"/>
  <unicode hex="0061"/>
  <outline>
    <contour>
      <point x="670" y="203" type="curve"/>
      <point x="669" y="192"/>
      <point x="669" y="183"/>
      <point x="669" y="173" type="curve" smooth="yes"/>
      <point x="669" y="2"/>
      <point x="791" y="-21"/>
      <point x="820" y="-21" type="curve" smooth="yes"/>
      <point x="974" y="-21"/>
      <point x="1113" y="166"/>
      <point x="1174" y="260" type="curve"/>
      <point x="1191" y="284" type="line"/>
      <point x="1111" y="352" type="line"/>
      <point x="1104" y="342" type="line"/>
      <point x="1068" y="298"/>
      <point x="958" y="141"/>
      <point x="892" y="141" type="curve" smooth="yes"/>
      <point x="858" y="141"/>
      <point x="844" y="171"/>
      <point x="844" y="218" type="curve" smooth="yes"/>
      <point x="844" y="286"/>
      <point x="874" y="386"/>
      <point x="905" y="482" type="curve" smooth="yes"/>
      <point x="999" y="772" type="line"/>
      <point x="1001" y="782"/>
      <point x="1004" y="793"/>
      <point x="1004" y="803" type="curve" smooth="yes"/>
      <point x="1004" y="856"/>
      <point x="959" y="899"/>
      <point x="902" y="899" type="curve" smooth="yes"/>
      <point x="860" y="899"/>
      <point x="838" y="874"/>
      <point x="827" y="843" type="curve" smooth="yes"/>
      <point x="794" y="737" type="line"/>
      <point x="769" y="863"/>
      <point x="678" y="926"/>
      <point x="544" y="926" type="curve" smooth="yes"/>
      <point x="259" y="926"/>
      <point x="50" y="632"/>
      <point x="50" y="339" type="curve" smooth="yes"/>
      <point x="50" y="92"/>
      <point x="187" y="-20"/>
      <point x="335" y="-20" type="curve" smooth="yes"/>
      <point x="456" y="-20"/>
      <point x="587" y="59"/>
    </contour>
    <contour>
      <point x="253" y="290" type="curve" smooth="yes"/>
      <point x="251" y="308"/>
      <point x="251" y="326"/>
      <point x="251" y="343" type="curve" smooth="yes"/>
      <point x="251" y="623"/>
      <point x="439" y="830"/>
      <point x="581" y="830" type="curve" smooth="yes"/>
      <point x="665" y="830"/>
      <point x="738" y="749"/>
      <point x="738" y="614" type="curve" smooth="yes"/>
      <point x="738" y="372"/>
      <point x="557" y="104"/>
      <point x="391" y="104" type="curve" smooth="yes"/>
      <point x="320" y="104"/>
      <point x="265" y="160"/>
    </contour>
  </outline>
</glyph>
<glyph name="b" format="1">
  <advance width="1018"/>
  <unicode hex="0062"/>
  <outline>
    <contour>
      <point x="254" y="303" type="curve" smooth="yes"/>
      <point x="253" y="317"/>
      <point x="252" y="331"/>
      <point x="252" y="345" type="curve" smooth="yes"/>
      <point x="252" y="560"/>
      <point x="391" y="821"/>
      <point x="611" y="821" type="curve" smooth="yes"/>
      <point x="728" y="821"/>
      <point x="771" y="679"/>
      <point x="771" y="572" type="curve" smooth="yes"/>
      <point x="771" y="371"/>
      <point x="634" y="104"/>
      <point x="423" y="104" type="curve" smooth="yes"/>
      <point x="302" y="104"/>
      <point x="261" y="210"/>
    </contour>
    <contour>
      <point x="489" y="1278" type="line"/>
      <point x="498" y="1315"/>
      <point x="504" y="1344"/>
      <point x="504" y="1366" type="curve" smooth="yes"/>
      <point x="504" y="1401"/>
      <point x="488" y="1415"/>
      <point x="452" y="1415" type="curve" smooth="yes"/>
      <point x="445" y="1415"/>
      <point x="439" y="1415"/>
      <point x="431" y="1414" type="curve" smooth="yes"/>
      <point x="123" y="1378" type="line" smooth="yes"/>
      <point x="93" y="1374"/>
      <point x="81" y="1311"/>
      <point x="81" y="1292" type="curve" smooth="yes"/>
      <point x="81" y="1271"/>
      <point x="98" y="1263"/>
      <point x="125" y="1263" type="curve" smooth="yes"/>
      <point x="284" y="1263" type="line"/>
      <point x="193" y="909"/>
      <point x="49" y="581"/>
      <point x="49" y="322" type="curve" smooth="yes"/>
      <point x="49" y="126"/>
      <point x="227" y="-20"/>
      <point x="416" y="-20" type="curve" smooth="yes"/>
      <point x="722" y="-20"/>
      <point x="968" y="242"/>
      <point x="968" y="544" type="curve" smooth="yes"/>
      <point x="968" y="758"/>
      <point x="841" y="925"/>
      <point x="633" y="925" type="curve" smooth="yes"/>
      <point x="530" y="925"/>
      <point x="427" y="885"/>
      <point x="363" y="834" type="curve"/>
    </contour>
  </outline>
</glyph>
<glyph name="c" format="1">
  <advance width="953"/>
  <unicode hex="0063"/>
  <outline>
    <contour>
      <point x="481" y="133" type="curve" smooth="yes"/>
      <point x="318" y="133"/>
      <point x="250" y="260"/>
      <point x="250" y="405" type="curve" smooth="yes"/>
      <point x="250" y="600"/>
      <point x="366" y="826"/>
      <point x="528" y="826" type="curve" smooth="yes"/>
      <point x="646" y="826"/>
      <point x="693" y="623"/>
      <point x="801" y="623" type="curve" smooth="yes"/>
      <point x="858" y="623"/>
      <point x="890" y="652"/>
      <point x="890" y="705" type="curve" smooth="yes"/>
      <point x="890" y="857"/>
      <point x="653" y="926"/>
      <point x="542" y="926" type="curve" smooth="yes"/>
      <point x="259" y="926"/>
      <point x="46" y="683"/>
      <point x="46" y="406" type="curve" smooth="yes"/>
      <point x="46" y="158"/>
      <point x="231" y="-21"/>
      <point x="464" y="-21" type="curve" smooth="yes"/>
      <point x="663" y="-21"/>
      <point x="817" y="122"/>
      <point x="916" y="267" type="curve"/>
      <point x="815" y="347" type="line"/>
      <point x="731" y="240"/>
      <point x="645" y="133"/>
    </contour>
  </outline>
</glyph>
<glyph name="d" format="1">
  <advance width="1265"/>
  <unicode hex="0064"/>
  <outline>
    <contour>
      <point x="847" y="-20" type="curve" smooth="yes"/>
      <point x="1032" y="-20"/>
      <point x="1146" y="173"/>
      <point x="1234" y="299" type="curve"/>
      <point x="1148" y="364" type="line"/>
      <point x="1037" y="212"/>
      <point x="978" y="121"/>
      <point x="915" y="121" type="curve" smooth="yes"/>
      <point x="872" y="121"/>
      <point x="856" y="154"/>
      <point x="856" y="188" type="curve" smooth="yes"/>
      <point x="856" y="231"/>
      <point x="873" y="284"/>
      <point x="877" y="299" type="curve" smooth="yes"/>
      <point x="1127" y="1195" type="line" smooth="yes"/>
      <point x="1137" y="1231"/>
      <point x="1142" y="1260"/>
      <point x="1142" y="1281" type="curve" smooth="yes"/>
      <point x="1142" y="1317"/>
      <point x="1127" y="1332"/>
      <point x="1091" y="1332" type="curve" smooth="yes"/>
      <point x="1084" y="1332"/>
      <point x="1078" y="1332"/>
      <point x="1070" y="1331" type="curve" smooth="yes"/>
      <point x="762" y="1295" type="line" smooth="yes"/>
      <point x="732" y="1291"/>
      <point x="719" y="1228"/>
      <point x="719" y="1209" type="curve" smooth="yes"/>
      <point x="719" y="1188"/>
      <point x="737" y="1180"/>
      <point x="764" y="1180" type="curve" smooth="yes"/>
      <point x="923" y="1180" type="line"/>
      <point x="923" y="1180"/>
      <point x="798" y="754"/>
      <point x="798" y="755" type="curve" smooth="yes"/>
      <point x="773" y="859"/>
      <point x="653" y="926"/>
      <point x="557" y="926" type="curve" smooth="yes"/>
      <point x="256" y="926"/>
      <point x="47" y="648"/>
      <point x="47" y="357" type="curve" smooth="yes"/>
      <point x="47" y="203"/>
      <point x="135" y="-20"/>
      <point x="340" y="-20" type="curve" smooth="yes"/>
      <point x="505" y="-20"/>
      <point x="630" y="105"/>
      <point x="706" y="253" type="curve"/>
      <point x="699" y="223"/>
      <point x="695" y="194"/>
      <point x="695" y="168" type="curve" smooth="yes"/>
      <point x="695" y="54"/>
      <point x="746" y="-20"/>
    </contour>
    <contour>
      <point x="275" y="288" type="curve" smooth="yes"/>
      <point x="273" y="305"/>
      <point x="273" y="323"/>
      <point x="273" y="340" type="curve" smooth="yes"/>
      <point x="273" y="576"/>
      <point x="401" y="826"/>
      <point x="574" y="826" type="curve" smooth="yes"/>
      <point x="678" y="826"/>
      <point x="740" y="730"/>
      <point x="740" y="589" type="curve" smooth="yes"/>
      <point x="740" y="352"/>
      <point x="573" y="109"/>
      <point x="416" y="109" type="curve" smooth="yes"/>
      <point x="329" y="109"/>
      <point x="283" y="195"/>
    </contour>
  </outline>
</glyph>
<glyph name="f" format="1">
  <advance width="1381"/>
  <unicode hex="0066"/>
  <outline>
    <contour>
      <point x="853" y="826" type="line"/>
      <point x="870" y="891" type="line" smooth="yes"/>
      <point x="889" y="965"/>
      <point x="931" y="1135"/>
      <point x="1001" y="1135" type="curve" smooth="yes"/>
      <point x="1089" y="1135"/>
      <point x="1160" y="983"/>
      <point x="1259" y="983" type="curve" smooth="yes"/>
      <point x="1313" y="983"/>
      <point x="1353" y="1012"/>
      <point x="1353" y="1061" type="curve" smooth="yes"/>
      <point x="1353" y="1215"/>
      <point x="1171" y="1251"/>
      <point x="1069" y="1251" type="curve" smooth="yes"/>
      <point x="831" y="1251"/>
      <point x="722" y="1105"/>
      <point x="667" y="895" type="curve" smooth="yes"/>
      <point x="649" y="826" type="line"/>
      <point x="436" y="826" type="line"/>
      <point x="401" y="685" type="line"/>
      <point x="614" y="685" type="line"/>
      <point x="515" y="293" type="line"/>
      <point x="427" y="-63"/>
      <point x="414" y="-198"/>
      <point x="303" y="-198" type="curve" smooth="yes"/>
      <point x="247" y="-198"/>
      <point x="215" y="-57"/>
      <point x="124" y="-57" type="curve" smooth="yes"/>
      <point x="73" y="-57"/>
      <point x="22" y="-80"/>
      <point x="22" y="-133" type="curve" smooth="yes"/>
      <point x="22" y="-263"/>
      <point x="181" y="-303"/>
      <point x="254" y="-303" type="curve" smooth="yes"/>
      <point x="625" y="-303"/>
      <point x="645" y="11"/>
      <point x="729" y="336" type="curve" smooth="yes"/>
      <point x="819" y="685" type="line"/>
      <point x="1081" y="685" type="line"/>
      <point x="1117" y="826" type="line"/>
    </contour>
  </outline>
</glyph>
<glyph name="j" format="1">
  <advance width="965"/>
  <unicode hex="006A"/>
  <outline>
    <contour>
      <point x="936" y="1181" type="curve" smooth="yes"/>
      <point x="928" y="1268"/>
      <point x="862" y="1312"/>
      <point x="799" y="1312" type="curve" smooth="yes"/>
      <point x="743" y="1312"/>
      <point x="690" y="1275"/>
      <point x="690" y="1204" type="curve" smooth="yes"/>
      <point x="690" y="1110"/>
      <point x="768" y="1057"/>
      <point x="834" y="1057" type="curve" smooth="yes"/>
      <point x="888" y="1057"/>
      <point x="937" y="1091"/>
      <point x="937" y="1166" type="curve" smooth="yes"/>
      <point x="937" y="1171"/>
      <point x="936" y="1176"/>
    </contour>
    <contour>
      <point x="811" y="590" type="line" smooth="yes"/>
      <point x="826" y="649"/>
      <point x="834" y="701"/>
      <point x="834" y="746" type="curve" smooth="yes"/>
      <point x="834" y="851"/>
      <point x="784" y="926"/>
      <point x="661" y="926" type="curve" smooth="yes"/>
      <point x="527" y="926"/>
      <point x="446" y="797"/>
      <point x="340" y="657" type="curve"/>
      <point x="422" y="598" type="line"/>
      <point x="492" y="702" type="line" smooth="yes"/>
      <point x="532" y="761"/>
      <point x="572" y="787"/>
      <point x="600" y="787" type="curve" smooth="yes"/>
      <point x="628" y="787"/>
      <point x="639" y="766"/>
      <point x="639" y="731" type="curve" smooth="yes"/>
      <point x="639" y="701"/>
      <point x="629" y="664"/>
      <point x="621" y="633" type="curve" smooth="yes"/>
      <point x="548" y="365" type="line" smooth="yes"/>
      <point x="514" y="240"/>
      <point x="479" y="114"/>
      <point x="452" y="-13" type="curve" smooth="yes"/>
      <point x="435" y="-94"/>
      <point x="415" y="-213"/>
      <point x="329" y="-213" type="curve" smooth="yes"/>
      <point x="246" y="-213"/>
      <point x="202" y="-114"/>
      <point x="102" y="-114" type="curve" smooth="yes"/>
      <point x="55" y="-114"/>
      <point x="22" y="-142"/>
      <point x="22" y="-191" type="curve" smooth="yes"/>
      <point x="22" y="-305"/>
      <point x="172" y="-339"/>
      <point x="252" y="-339" type="curve" smooth="yes"/>
      <point x="589" y="-339"/>
      <point x="662" y="5"/>
      <point x="730" y="271" type="curve" smooth="yes"/>
    </contour>
  </outline>
</glyph>
<glyph name="o" format="1">
  <advance width="1000"/>
  <unicode hex="006F"/>
  <outline>
    <contour>
      <point x="469" y="-20" type="curve" smooth="yes"/>
      <point x="738" y="-20"/>
      <point x="950" y="214"/>
      <point x="950" y="478" type="curve" smooth="yes"/>
      <point x="950" y="756"/>
      <point x="766" y="926"/>
      <point x="520" y="926" type="curve" smooth="yes"/>
      <point x="252" y="926"/>
      <point x="45" y="684"/>
      <point x="45" y="418" type="curve" smooth="yes"/>
      <point x="45" y="180"/>
      <point x="238" y="-20"/>
    </contour>
    <contour>
      <point x="550" y="831" type="curve" smooth="yes"/>
      <point x="691" y="831"/>
      <point x="745" y="714"/>
      <point x="745" y="580" type="curve" smooth="yes"/>
      <point x="745" y="358"/>
      <point x="604" y="75"/>
      <point x="448" y="75" type="curve" smooth="yes"/>
      <point x="306" y="75"/>
      <point x="251" y="179"/>
      <point x="251" y="320" type="curve" smooth="yes"/>
      <point x="251" y="539"/>
      <point x="398" y="831"/>
    </contour>
  </outline>
</glyph>
<glyph name="q" format="1">
  <advance width="1065"/>
  <unicode hex="0071"/>
  <outline>
    <contour>
      <point x="754" y="595" type="curve" smooth="yes"/>
      <point x="754" y="292"/>
      <point x="564" y="105"/>
      <point x="423" y="105" type="curve" smooth="yes"/>
      <point x="323" y="105"/>
      <point x="245" y="178"/>
      <point x="245" y="357" type="curve" smooth="yes"/>
      <point x="245" y="558"/>
      <point x="378" y="826"/>
      <point x="583" y="826" type="curve" smooth="yes"/>
      <point x="723" y="826"/>
      <point x="754" y="708"/>
    </contour>
    <contour>
      <point x="864" y="-393" type="line"/>
      <point x="899" y="-389"/>
      <point x="917" y="-362"/>
      <point x="917" y="-329" type="curve" smooth="yes"/>
      <point x="917" y="-239"/>
      <point x="751" y="-324"/>
      <point x="751" y="-234" type="curve" smooth="yes"/>
      <point x="751" y="-225"/>
      <point x="752" y="-215"/>
      <point x="756" y="-202" type="curve" smooth="yes"/>
      <point x="1031" y="792" type="line" smooth="yes"/>
      <point x="1033" y="800"/>
      <point x="1034" y="807"/>
      <point x="1034" y="815" type="curve" smooth="yes"/>
      <point x="1034" y="860"/>
      <point x="998" y="899"/>
      <point x="946" y="899" type="curve" smooth="yes"/>
      <point x="897" y="899"/>
      <point x="876" y="874"/>
      <point x="864" y="843" type="curve"/>
      <point x="821" y="714" type="line"/>
      <point x="782" y="876"/>
      <point x="671" y="927"/>
      <point x="558" y="927" type="curve" smooth="yes"/>
      <point x="299" y="927"/>
      <point x="48" y="675"/>
      <point x="48" y="362" type="curve" smooth="yes"/>
      <point x="48" y="147"/>
      <point x="175" y="-19"/>
      <point x="383" y="-19" type="curve" smooth="yes"/>
      <point x="482" y="-19"/>
      <point x="581" y="33"/>
      <point x="643" y="102" type="curve"/>
      <point x="539" y="-257" type="line" smooth="yes"/>
      <point x="528" y="-294"/>
      <point x="524" y="-324"/>
      <point x="524" y="-345" type="curve" smooth="yes"/>
      <point x="524" y="-391"/>
      <point x="561" y="-393"/>
      <point x="597" y="-393" type="curve" smooth="yes"/>
    </contour>
  </outline>
</glyph>
<glyph name="r" format="1">
  <advance width="1079"/>
  <unicode hex="0072"/>
  <outline>
    <contour>
      <point x="275" y="-20" type="curve" smooth="yes"/>
      <point x="342" y="-20"/>
      <point x="391" y="72"/>
      <point x="415" y="115" type="curve"/>
      <point x="540" y="326" type="line" smooth="yes"/>
      <point x="608" y="441"/>
      <point x="695" y="600"/>
      <point x="821" y="657" type="curve" smooth="yes"/>
      <point x="889" y="687"/>
      <point x="1051" y="718"/>
      <point x="1051" y="822" type="curve" smooth="yes"/>
      <point x="1051" y="880"/>
      <point x="996" y="928"/>
      <point x="941" y="928" type="curve" smooth="yes"/>
      <point x="753" y="927"/>
      <point x="594" y="571"/>
      <point x="510" y="432" type="curve" smooth="yes"/>
      <point x="419" y="281" type="line"/>
      <point x="395" y="292" type="line"/>
      <point x="473" y="494"/>
      <point x="527" y="652"/>
      <point x="527" y="761" type="curve" smooth="yes"/>
      <point x="527" y="838"/>
      <point x="483" y="906"/>
      <point x="381" y="906" type="curve" smooth="yes"/>
      <point x="223" y="906"/>
      <point x="113" y="758"/>
      <point x="34" y="642" type="curve"/>
      <point x="114" y="567" type="line"/>
      <point x="154" y="630"/>
      <point x="236" y="767"/>
      <point x="297" y="767" type="curve" smooth="yes"/>
      <point x="329" y="767"/>
      <point x="324" y="730"/>
      <point x="324" y="732" type="curve" smooth="yes"/>
      <point x="324" y="684"/>
      <point x="303" y="565"/>
      <point x="214" y="300" type="curve" smooth="yes"/>
      <point x="196" y="246"/>
      <point x="160" y="162"/>
      <point x="160" y="99" type="curve" smooth="yes"/>
      <point x="160" y="39"/>
      <point x="195" y="-20"/>
    </contour>
  </outline>
</glyph>
<glyph name="s" format="1">
  <advance width="877"/>
  <unicode hex="0073"/>
  <outline>
    <contour>
      <point x="480" y="-20" type="curve" smooth="yes"/>
      <point x="678" y="-20"/>
      <point x="770" y="78"/>
      <point x="767" y="209" type="curve" smooth="yes"/>
      <point x="764" y="320"/>
      <point x="698" y="438"/>
      <point x="506" y="548" type="curve" smooth="yes"/>
      <point x="376" y="623"/>
      <point x="317" y="680"/>
      <point x="315" y="744" type="curve" smooth="yes"/>
      <point x="314" y="815"/>
      <point x="390" y="827"/>
      <point x="438" y="827" type="curve" smooth="yes"/>
      <point x="651" y="827"/>
      <point x="635" y="617"/>
      <point x="760" y="617" type="curve" smooth="yes"/>
      <point x="811" y="617"/>
      <point x="838" y="649"/>
      <point x="837" y="695" type="curve" smooth="yes"/>
      <point x="834" y="860"/>
      <point x="575" y="926"/>
      <point x="448" y="926" type="curve" smooth="yes"/>
      <point x="300" y="926"/>
      <point x="151" y="878"/>
      <point x="155" y="714" type="curve" smooth="yes"/>
      <point x="158" y="569"/>
      <point x="268" y="478"/>
      <point x="405" y="403" type="curve" smooth="yes"/>
      <point x="540" y="328"/>
      <point x="595" y="255"/>
      <point x="596" y="199" type="curve" smooth="yes"/>
      <point x="597" y="141"/>
      <point x="560" y="103"/>
      <point x="479" y="103" type="curve" smooth="yes"/>
      <point x="227" y="103"/>
      <point x="241" y="341"/>
      <point x="120" y="341" type="curve" smooth="yes"/>
      <point x="70" y="341"/>
      <point x="43" y="308"/>
      <point x="44" y="259" type="curve" smooth="yes"/>
      <point x="47" y="108"/>
      <point x="290" y="-20"/>
    </contour>
  </outline>
</glyph>
<glyph name="t" format="1">
  <advance width="753"/>
  <unicode hex="0074"/>
  <outline>
    <contour>
      <point x="242" y="797" type="line"/>
      <point x="120" y="392" type="line" smooth="yes"/>
      <point x="103" y="334"/>
      <point x="79" y="247"/>
      <point x="79" y="165" type="curve" smooth="yes"/>
      <point x="79" y="67"/>
      <point x="117" y="-20"/>
      <point x="247" y="-20" type="curve" smooth="yes"/>
      <point x="378" y="-20"/>
      <point x="472" y="74"/>
      <point x="533" y="163" type="curve"/>
      <point x="600" y="271" type="line"/>
      <point x="507" y="335" type="line"/>
      <point x="443" y="230" type="line"/>
      <point x="393" y="152"/>
      <point x="349" y="124"/>
      <point x="320" y="124" type="curve" smooth="yes"/>
      <point x="289" y="124"/>
      <point x="280" y="147"/>
      <point x="280" y="175" type="curve" smooth="yes"/>
      <point x="280" y="202"/>
      <point x="289" y="236"/>
      <point x="298" y="264" type="curve" smooth="yes"/>
      <point x="459" y="797" type="line"/>
      <point x="700" y="797" type="line"/>
      <point x="729" y="926" type="line"/>
      <point x="489" y="926" type="line"/>
      <point x="489" y="926"/>
      <point x="580" y="1144"/>
      <point x="580" y="1178" type="curve" smooth="yes"/>
      <point x="580" y="1196"/>
      <point x="561" y="1235"/>
      <point x="519" y="1235" type="curve" smooth="yes"/>
      <point x="416" y="1235"/>
      <point x="401" y="1068"/>
      <point x="305" y="926" type="curve"/>
      <point x="78" y="926" type="line"/>
      <point x="39" y="797" type="line"/>
    </contour>
  </outline>
</glyph>
<glyph name="x" format="1">
  <advance width="1297"/>
  <unicode hex="0078"/>
  <outline>
    <contour>
      <point x="602" y="326" type="line"/>
      <point x="611" y="326" type="line" smooth="yes"/>
      <point x="654" y="326"/>
      <point x="653" y="-23"/>
      <point x="892" y="-23" type="curve" smooth="yes"/>
      <point x="986" y="-23"/>
      <point x="1238" y="146"/>
      <point x="1238" y="245" type="curve" smooth="yes"/>
      <point x="1238" y="248"/>
      <point x="1237" y="261"/>
      <point x="1233" y="265" type="curve" smooth="yes"/>
      <point x="1174" y="317" type="line"/>
      <point x="1166" y="317" type="line"/>
      <point x="1115" y="252"/>
      <point x="1050" y="145"/>
      <point x="948" y="145" type="curve" smooth="yes"/>
      <point x="875" y="145"/>
      <point x="854" y="227"/>
      <point x="832" y="282" type="curve" smooth="yes"/>
      <point x="816" y="320"/>
      <point x="748" y="499"/>
      <point x="750" y="503" type="curve"/>
      <point x="750" y="509" type="line" smooth="yes"/>
      <point x="750" y="525"/>
      <point x="757" y="531"/>
      <point x="769" y="546" type="curve" smooth="yes"/>
      <point x="849" y="647"/>
      <point x="917" y="761"/>
      <point x="1021" y="761" type="curve" smooth="yes"/>
      <point x="1070" y="761"/>
      <point x="1116" y="734"/>
      <point x="1164" y="734" type="curve" smooth="yes"/>
      <point x="1212" y="734"/>
      <point x="1266" y="765"/>
      <point x="1266" y="815" type="curve" smooth="yes"/>
      <point x="1266" y="918"/>
      <point x="1148" y="956"/>
      <point x="1073" y="956" type="curve" smooth="yes"/>
      <point x="1001" y="956"/>
      <point x="927" y="920"/>
      <point x="882" y="868" type="curve" smooth="yes"/>
      <point x="713" y="673" type="line"/>
      <point x="712" y="673"/>
      <point x="708" y="671"/>
      <point x="705" y="671" type="curve" smooth="yes"/>
      <point x="666" y="671"/>
      <point x="647" y="964"/>
      <point x="435" y="964" type="curve" smooth="yes"/>
      <point x="285" y="964"/>
      <point x="194" y="830"/>
      <point x="123" y="726" type="curve" smooth="yes"/>
      <point x="119" y="720"/>
      <point x="118" y="715"/>
      <point x="118" y="711" type="curve" smooth="yes"/>
      <point x="118" y="681"/>
      <point x="160" y="648"/>
      <point x="194" y="648" type="curve" smooth="yes"/>
      <point x="252" y="648"/>
      <point x="270" y="820"/>
      <point x="382" y="820" type="curve" smooth="yes"/>
      <point x="461" y="820"/>
      <point x="489" y="676"/>
      <point x="509" y="623" type="curve" smooth="yes"/>
      <point x="518" y="597"/>
      <point x="554" y="521"/>
      <point x="561" y="475" type="curve" smooth="yes"/>
      <point x="561" y="472"/>
      <point x="560" y="470"/>
      <point x="560" y="468" type="curve"/>
      <point x="515" y="401"/>
      <point x="383" y="180"/>
      <point x="275" y="180" type="curve" smooth="yes"/>
      <point x="231" y="180"/>
      <point x="186" y="215"/>
      <point x="137" y="215" type="curve" smooth="yes"/>
      <point x="78" y="215"/>
      <point x="26" y="183"/>
      <point x="26" y="123" type="curve" smooth="yes"/>
      <point x="26" y="36"/>
      <point x="110" y="-15"/>
      <point x="182" y="-15" type="curve" smooth="yes"/>
      <point x="262" y="-15"/>
      <point x="343" y="12"/>
      <point x="392" y="71" type="curve" smooth="yes"/>
    </contour>
  </outline>
</glyph>
<glyph name="z" format="1">
  <advance width="927"/>
  <unicode hex="007A"/>
  <outline>
    <contour>
      <point x="55" y="-20" type="curve"/>
      <point x="61" y="-21"/>
      <point x="72" y="-21"/>
      <point x="84" y="-21" type="curve" smooth="yes"/>
      <point x="104" y="-21"/>
      <point x="127" y="-20"/>
      <point x="127" y="-20" type="curve"/>
      <point x="126" y="-20" type="line"/>
      <point x="126" y="-20"/>
      <point x="129" y="100"/>
      <point x="210" y="100" type="curve" smooth="yes"/>
      <point x="268" y="100"/>
      <point x="395" y="-20"/>
      <point x="606" y="-20" type="curve" smooth="yes"/>
      <point x="734" y="-20"/>
      <point x="881" y="33"/>
      <point x="881" y="180" type="curve" smooth="yes"/>
      <point x="881" y="286"/>
      <point x="816" y="330"/>
      <point x="757" y="330" type="curve" smooth="yes"/>
      <point x="708" y="330"/>
      <point x="664" y="300"/>
      <point x="664" y="252" type="curve" smooth="yes"/>
      <point x="664" y="170"/>
      <point x="762" y="130"/>
      <point x="761" y="130" type="curve" smooth="yes"/>
      <point x="761" y="130"/>
      <point x="747" y="115"/>
      <point x="700" y="115" type="curve" smooth="yes"/>
      <point x="572" y="115"/>
      <point x="468" y="224"/>
      <point x="297" y="224" type="curve" smooth="yes"/>
      <point x="264" y="224"/>
      <point x="232" y="220"/>
      <point x="201" y="212" type="curve"/>
      <point x="260" y="291"/>
      <point x="361" y="343"/>
      <point x="442" y="396" type="curve"/>
      <point x="588" y="484"/>
      <point x="735" y="589"/>
      <point x="816" y="744" type="curve" smooth="yes"/>
      <point x="837" y="784"/>
      <point x="861" y="832"/>
      <point x="861" y="883" type="curve" smooth="yes"/>
      <point x="861" y="884"/>
      <point x="865" y="926"/>
      <point x="843" y="926" type="curve" smooth="yes"/>
      <point x="777" y="926" type="line"/>
      <point x="777" y="926"/>
      <point x="755" y="847"/>
      <point x="690" y="847" type="curve" smooth="yes"/>
      <point x="569" y="847"/>
      <point x="449" y="926"/>
      <point x="327" y="926" type="curve" smooth="yes"/>
      <point x="215" y="926"/>
      <point x="82" y="862"/>
      <point x="82" y="742" type="curve" smooth="yes"/>
      <point x="82" y="665"/>
      <point x="135" y="598"/>
      <point x="208" y="598" type="curve" smooth="yes"/>
      <point x="251" y="598"/>
      <point x="290" y="624"/>
      <point x="290" y="669" type="curve" smooth="yes"/>
      <point x="290" y="723"/>
      <point x="235" y="761"/>
      <point x="235" y="781" type="curve" smooth="yes"/>
      <point x="235" y="789"/>
      <point x="246" y="796"/>
      <point x="275" y="796" type="curve" smooth="yes"/>
      <point x="367" y="796"/>
      <point x="421" y="684"/>
      <point x="636" y="684" type="curve"/>
      <point x="586" y="596"/>
      <point x="451" y="542"/>
      <point x="368" y="494" type="curve" smooth="yes"/>
      <point x="229" y="413"/>
      <point x="30" y="260"/>
      <point x="30" y="72" type="curve" smooth="yes"/>
      <point x="30" y="45"/>
      <point x="30" y="8"/>
    </contour>
  </outline>
</glyph>
<glyph name="braceleft" format="1">
  <advance width="827"/>
  <unicode hex="007B"/>
  <outline>
    <contour>
      <point x="319" y="619" type="curve"/>
      <point x="402" y="547"/>
      <point x="522" y="583"/>
      <point x="486" y="406" type="curve"/>
      <point x="464" y="310"/>
      <point x="420" y="216"/>
      <point x="400" y="120" type="curve" smooth="yes"/>
      <point x="353" y="-101"/>
      <point x="460" y="-220"/>
      <point x="673" y="-233" type="curve"/>
      <point x="681" y="-225"/>
      <point x="685" y="-215"/>
      <point x="687" y="-205" type="curve" smooth="yes"/>
      <point x="690" y="-194"/>
      <point x="689" y="-184"/>
      <point x="685" y="-176" type="curve"/>
      <point x="591" y="-160"/>
      <point x="503" y="-117"/>
      <point x="527" y="-4" type="curve" smooth="yes"/>
      <point x="549" y="97"/>
      <point x="613" y="194"/>
      <point x="635" y="297" type="curve" smooth="yes"/>
      <point x="671" y="468"/>
      <point x="584" y="585"/>
      <point x="436" y="632" type="curve"/>
      <point x="604" y="680"/>
      <point x="739" y="794"/>
      <point x="775" y="967" type="curve"/>
      <point x="797" y="1067"/>
      <point x="775" y="1162"/>
      <point x="797" y="1261" type="curve"/>
      <point x="822" y="1382"/>
      <point x="913" y="1425"/>
      <point x="1026" y="1440" type="curve"/>
      <point x="1030" y="1448"/>
      <point x="1033" y="1458"/>
      <point x="1037" y="1467" type="curve"/>
      <point x="1038" y="1477"/>
      <point x="1038" y="1488"/>
      <point x="1038" y="1497" type="curve"/>
      <point x="828" y="1484"/>
      <point x="661" y="1372"/>
      <point x="617" y="1157" type="curve" smooth="yes"/>
      <point x="598" y="1061"/>
      <point x="604" y="967"/>
      <point x="585" y="871" type="curve"/>
      <point x="560" y="752"/>
      <point x="473" y="677"/>
      <point x="352" y="667" type="curve"/>
      <point x="333" y="657"/>
      <point x="324" y="637"/>
    </contour>
  </outline>
</glyph>
<glyph name="bar" format="1">
  <advance width="824"/>
  <unicode hex="007C"/>
  <outline>
    <contour>
      <point x="597" y="1165" type="line"/>
      <point x="294" y="-283" type="line"/>
      <point x="317" y="-301"/>
      <point x="338" y="-314"/>
      <point x="369" y="-315" type="curve"/>
      <point x="415" y="-244"/>
      <point x="433" y="-164"/>
      <point x="448" y="-88" type="curve"/>
      <point x="729" y="1244" type="line" smooth="yes"/>
      <point x="744" y="1317"/>
      <point x="745" y="1387"/>
      <point x="745" y="1459" type="curve"/>
      <point x="746" y="1467" type="line"/>
      <point x="742" y="1467" type="line" smooth="yes"/>
      <point x="711" y="1467"/>
      <point x="676" y="1457"/>
      <point x="653" y="1431" type="curve"/>
    </contour>
  </outline>
</glyph>
<glyph name="braceright" format="1">
  <advance width="827"/>
  <unicode hex="007D"/>
  <outline>
    <contour>
      <point x="753" y="667" type="curve"/>
      <point x="639" y="676"/>
      <point x="581" y="748"/>
      <point x="605" y="866" type="curve" smooth="yes"/>
      <point x="625" y="964"/>
      <point x="672" y="1059"/>
      <point x="694" y="1157" type="curve"/>
      <point x="738" y="1372"/>
      <point x="619" y="1484"/>
      <point x="418" y="1497" type="curve"/>
      <point x="412" y="1488"/>
      <point x="407" y="1477"/>
      <point x="406" y="1467" type="curve"/>
      <point x="402" y="1458"/>
      <point x="403" y="1448"/>
      <point x="406" y="1440" type="curve"/>
      <point x="510" y="1425"/>
      <point x="584" y="1380"/>
      <point x="560" y="1261" type="curve"/>
      <point x="538" y="1162"/>
      <point x="476" y="1067"/>
      <point x="454" y="967" type="curve"/>
      <point x="418" y="795"/>
      <point x="504" y="679"/>
      <point x="655" y="632" type="curve"/>
      <point x="487" y="585"/>
      <point x="350" y="468"/>
      <point x="314" y="297" type="curve" smooth="yes"/>
      <point x="292" y="194"/>
      <point x="316" y="97"/>
      <point x="294" y="-4" type="curve" smooth="yes"/>
      <point x="270" y="-117"/>
      <point x="168" y="-161"/>
      <point x="65" y="-176" type="curve"/>
      <point x="55" y="-187"/>
      <point x="54" y="-199"/>
      <point x="50" y="-212" type="curve"/>
      <point x="49" y="-219"/>
      <point x="50" y="-228"/>
      <point x="53" y="-233" type="curve"/>
      <point x="279" y="-219"/>
      <point x="429" y="-97"/>
      <point x="476" y="127" type="curve" smooth="yes"/>
      <point x="495" y="218"/>
      <point x="487" y="307"/>
      <point x="506" y="399" type="curve" smooth="yes"/>
      <point x="545" y="580"/>
      <point x="645" y="548"/>
      <point x="765" y="619" type="curve"/>
      <point x="770" y="637"/>
      <point x="766" y="657"/>
    </contour>
  </outline>
</glyph>
<glyph name="asciitilde" format="1">
  <advance width="858"/>
  <unicode hex="007E"/>
  <outline>
    <contour>
      <point x="933" y="846" type="line"/>
      <point x="914" y="770"/>
      <point x="874" y="718"/>
      <point x="792" y="718" type="curve" smooth="yes"/>
      <point x="688" y="718"/>
      <point x="542" y="851"/>
      <point x="400" y="851" type="curve" smooth="yes"/>
      <point x="247" y="851"/>
      <point x="170" y="731"/>
      <point x="129" y="596" type="curve"/>
      <point x="220" y="596" type="line"/>
      <point x="244" y="665"/>
      <point x="289" y="713"/>
      <point x="362" y="713" type="curve" smooth="yes"/>
      <point x="472" y="713"/>
      <point x="604" y="583"/>
      <point x="766" y="583" type="curve" smooth="yes"/>
      <point x="900" y="583"/>
      <point x="991" y="691"/>
      <point x="1022" y="846" type="curve"/>
    </contour>
  </outline>
</glyph>
<glyph name="cent" format="1">
  <advance width="1072"/>
  <unicode hex="00A2"/>
  <outline>
    <contour>
      <point x="299" y="-301" type="line" smooth="yes"/>
      <point x="287" y="-357"/>
      <point x="305" y="-388"/>
      <point x="325" y="-388" type="curve" smooth="yes"/>
      <point x="347" y="-388"/>
      <point x="380" y="-365"/>
      <point x="398" y="-285" type="curve" smooth="yes"/>
      <point x="709" y="1118" type="line" smooth="yes"/>
      <point x="736" y="1240"/>
      <point x="722" y="1262"/>
      <point x="694" y="1262" type="curve" smooth="yes"/>
      <point x="654" y="1262"/>
      <point x="639" y="1225"/>
      <point x="617" y="1125" type="curve" smooth="yes"/>
    </contour>
    <component base="c"/>
  </outline>
</glyph>
<glyph name="sterling" format="1">
  <advance width="1324"/>
  <unicode hex="00A3"/>
  <outline>
    <contour>
      <point x="87" y="-23" type="curve"/>
      <point x="242" y="67"/>
      <point x="349" y="97"/>
      <point x="434" y="97" type="curve" smooth="yes"/>
      <point x="603" y="97"/>
      <point x="684" y="-23"/>
      <point x="882" y="-23" type="curve" smooth="yes"/>
      <point x="1030" y="-23"/>
      <point x="1169" y="26"/>
      <point x="1169" y="178" type="curve" smooth="yes"/>
      <point x="1169" y="253"/>
      <point x="1132" y="337"/>
      <point x="1031" y="337" type="curve" smooth="yes"/>
      <point x="992" y="337"/>
      <point x="958" y="307"/>
      <point x="958" y="267" type="curve" smooth="yes"/>
      <point x="958" y="201"/>
      <point x="1069" y="174"/>
      <point x="1069" y="128" type="curve" smooth="yes"/>
      <point x="1069" y="114"/>
      <point x="1038" y="112"/>
      <point x="1000" y="112" type="curve" smooth="yes"/>
      <point x="770" y="112"/>
      <point x="680" y="193"/>
      <point x="566" y="226" type="curve"/>
      <point x="566" y="226"/>
      <point x="609" y="402"/>
      <point x="632" y="489" type="curve"/>
      <point x="867" y="489" type="line" smooth="yes"/>
      <point x="912" y="489"/>
      <point x="917" y="574"/>
      <point x="922" y="599" type="curve"/>
      <point x="657" y="599" type="line"/>
      <point x="715" y="807"/>
      <point x="760" y="1148"/>
      <point x="985" y="1148" type="curve" smooth="yes"/>
      <point x="1049" y="1148"/>
      <point x="1088" y="1047"/>
      <point x="1152" y="1047" type="curve" smooth="yes"/>
      <point x="1209" y="1047"/>
      <point x="1231" y="1073"/>
      <point x="1231" y="1125" type="curve" smooth="yes"/>
      <point x="1231" y="1231"/>
      <point x="1101" y="1253"/>
      <point x="1021" y="1253" type="curve" smooth="yes"/>
      <point x="613" y="1253"/>
      <point x="465" y="836"/>
      <point x="429" y="599" type="curve"/>
      <point x="221" y="599" type="line" smooth="yes"/>
      <point x="192" y="599"/>
      <point x="186" y="494"/>
      <point x="184" y="489" type="curve"/>
      <point x="411" y="489" type="line"/>
      <point x="398" y="401"/>
      <point x="387" y="317"/>
      <point x="356" y="236" type="curve"/>
      <point x="350" y="236"/>
      <point x="30" y="170"/>
      <point x="30" y="49" type="curve" smooth="yes"/>
      <point x="30" y="12"/>
      <point x="51" y="-23"/>
    </contour>
  </outline>
</glyph>
<glyph name="Ecircumflex" format="1">
  <advance width="1771"/>
  <unicode hex="00CA"/>
  <outline>
    <contour>
      <point x="11" y="424" type="curve"/>
      <point x="17" y="400"/>
      <point x="25" y="352"/>
      <point x="67" y="353" type="curve" smooth="yes"/>
      <point x="1683" y="375" type="line" smooth="yes"/>
      <point x="1694" y="375"/>
      <point x="1698" y="391"/>
      <point x="1698" y="408" type="curve" smooth="yes"/>
      <point x="1698" y="419"/>
      <point x="1695" y="430"/>
      <point x="1695" y="438" type="curve"/>
      <point x="1693" y="457"/>
      <point x="1664" y="521"/>
      <point x="1637" y="521" type="curve" smooth="yes"/>
      <point x="59" y="521" type="line" smooth="yes"/>
      <point x="19" y="521"/>
      <point x="8" y="486"/>
      <point x="8" y="452" type="curve" smooth="yes"/>
      <point x="8" y="443"/>
      <point x="11" y="432"/>
    </contour>
  </outline>
</glyph>
<glyph name="Ograve" format="1">
  <advance width="270"/>
  <unicode hex="00D2"/>
  <outline>
    <contour>
      <point x="-3" y="126" type="curve"/>
      <point x="7" y="65"/>
      <point x="59" y="9"/>
      <point x="122" y="9" type="curve" smooth="yes"/>
      <point x="203" y="9"/>
      <point x="243" y="86"/>
      <point x="243" y="160" type="curve" smooth="yes"/>
      <point x="243" y="256"/>
      <point x="199" y="288"/>
      <point x="122" y="288" type="curve" smooth="yes"/>
      <point x="48" y="288"/>
      <point x="-6" y="224"/>
      <point x="-6" y="150" type="curve" smooth="yes"/>
      <point x="-6" y="141"/>
      <point x="-3" y="133"/>
    </contour>
  </outline>
</glyph>
<glyph name="Ocircumflex" format="1">
  <advance width="374"/>
  <unicode hex="00D4"/>
  <outline>
    <contour>
      <point x="20" y="-157" type="line"/>
      <point x="29" y="-206"/>
      <point x="49" y="-212"/>
      <point x="88" y="-212" type="curve" smooth="yes"/>
      <point x="230" y="-212"/>
      <point x="354" y="-57"/>
      <point x="354" y="84" type="curve" smooth="yes"/>
      <point x="354" y="136"/>
      <point x="316" y="295"/>
      <point x="203" y="295" type="curve" smooth="yes"/>
      <point x="129" y="295"/>
      <point x="83" y="256"/>
      <point x="83" y="193" type="curve" smooth="yes"/>
      <point x="83" y="115"/>
      <point x="156" y="82"/>
      <point x="156" y="17" type="curve" smooth="yes"/>
      <point x="156" y="-71"/>
      <point x="20" y="-68"/>
      <point x="20" y="-150" type="curve" smooth="yes"/>
    </contour>
  </outline>
</glyph>
<glyph name="Otilde" format="1">
  <advance width="308"/>
  <unicode hex="00D5"/>
  <outline>
    <contour>
      <point x="-36" y="668" type="curve"/>
      <point x="-28" y="618"/>
      <point x="49" y="551"/>
      <point x="97" y="551" type="curve" smooth="yes"/>
      <point x="174" y="551"/>
      <point x="225" y="632"/>
      <point x="225" y="706" type="curve" smooth="yes"/>
      <point x="225" y="770"/>
      <point x="150" y="849"/>
      <point x="77" y="849" type="curve" smooth="yes"/>
      <point x="6" y="849"/>
      <point x="-38" y="765"/>
      <point x="-38" y="694" type="curve" smooth="yes"/>
      <point x="-38" y="685"/>
      <point x="-36" y="677"/>
    </contour>
  </outline>
</glyph>
<glyph name="Odieresis" format="1">
  <advance width="272"/>
  <unicode hex="00D6"/>
  <outline>
    <contour>
      <point x="-4" y="136" type="curve" smooth="yes"/>
      <point x="5" y="79"/>
      <point x="60" y="9"/>
      <point x="122" y="9" type="curve" smooth="yes"/>
      <point x="200" y="9"/>
      <point x="248" y="61"/>
      <point x="248" y="132" type="curve" smooth="yes"/>
      <point x="248" y="228"/>
      <point x="208" y="287"/>
      <point x="126" y="287" type="curve" smooth="yes"/>
      <point x="52" y="287"/>
      <point x="-7" y="241"/>
      <point x="-7" y="165" type="curve" smooth="yes"/>
      <point x="-7" y="155"/>
      <point x="-6" y="145"/>
    </contour>
  </outline>
</glyph>
<glyph name="multiply" format="1">
  <advance width="270"/>
  <unicode hex="00D7"/>
  <outline>
    <contour>
      <point x="-36" y="674" type="curve"/>
      <point x="-28" y="623"/>
      <point x="17" y="557"/>
      <point x="78" y="557" type="curve" smooth="yes"/>
      <point x="148" y="557"/>
      <point x="188" y="634"/>
      <point x="188" y="700" type="curve" smooth="yes"/>
      <point x="188" y="795"/>
      <point x="136" y="833"/>
      <point x="57" y="833" type="curve" smooth="yes"/>
      <point x="-7" y="833"/>
      <point x="-40" y="767"/>
      <point x="-40" y="704" type="curve" smooth="yes"/>
      <point x="-40" y="693"/>
      <point x="-38" y="682"/>
    </contour>
  </outline>
</glyph>
<glyph name="ae" format="1">
  <advance width="1405"/>
  <unicode hex="00E6"/>
  <outline>
    <contour>
      <point x="9" y="285" type="curve"/>
      <point x="34" y="136"/>
      <point x="163" y="-11"/>
      <point x="323" y="-11" type="curve" smooth="yes"/>
      <point x="438" y="-11"/>
      <point x="536" y="83"/>
      <point x="598" y="158" type="curve"/>
      <point x="704" y="47"/>
      <point x="805" y="-12"/>
      <point x="944" y="-12" type="curve" smooth="yes"/>
      <point x="1111" y="-12"/>
      <point x="1219" y="103"/>
      <point x="1303" y="221" type="curve"/>
      <point x="1303" y="221"/>
      <point x="1304" y="223"/>
      <point x="1304" y="224" type="curve" smooth="yes"/>
      <point x="1304" y="264"/>
      <point x="1280" y="287"/>
      <point x="1248" y="287" type="curve" smooth="yes"/>
      <point x="1155" y="287"/>
      <point x="1112" y="135"/>
      <point x="961" y="135" type="curve" smooth="yes"/>
      <point x="840" y="135"/>
      <point x="806" y="147"/>
      <point x="784" y="304" type="curve"/>
      <point x="958" y="317"/>
      <point x="1322" y="357"/>
      <point x="1322" y="586" type="curve" smooth="yes"/>
      <point x="1322" y="736"/>
      <point x="1199" y="812"/>
      <point x="1067" y="812" type="curve" smooth="yes"/>
      <point x="1001" y="812"/>
      <point x="899" y="746"/>
      <point x="840" y="746" type="curve" smooth="yes"/>
      <point x="837" y="746"/>
      <point x="834" y="746"/>
      <point x="831" y="747" type="curve" smooth="yes"/>
      <point x="822" y="748"/>
      <point x="766" y="806"/>
      <point x="759" y="810" type="curve"/>
      <point x="758" y="810"/>
      <point x="734" y="813"/>
      <point x="726" y="813" type="curve" smooth="yes"/>
      <point x="671" y="813"/>
      <point x="678" y="745"/>
      <point x="633" y="745" type="curve" smooth="yes"/>
      <point x="569" y="745"/>
      <point x="509" y="812"/>
      <point x="432" y="812" type="curve" smooth="yes"/>
      <point x="200" y="812"/>
      <point x="2" y="586"/>
      <point x="2" y="351" type="curve" smooth="yes"/>
      <point x="2" y="329"/>
      <point x="3" y="307"/>
    </contour>
    <contour>
      <point x="220" y="272" type="curve"/>
      <point x="218" y="295"/>
      <point x="215" y="321"/>
      <point x="215" y="348" type="curve" smooth="yes"/>
      <point x="215" y="502"/>
      <point x="279" y="708"/>
      <point x="431" y="708" type="curve" smooth="yes"/>
      <point x="543" y="708"/>
      <point x="576" y="547"/>
      <point x="576" y="501" type="curve" smooth="yes"/>
      <point x="576" y="346"/>
      <point x="489" y="135"/>
      <point x="327" y="135" type="curve" smooth="yes"/>
      <point x="264" y="135"/>
      <point x="229" y="223"/>
    </contour>
    <contour>
      <point x="1008" y="686" type="curve" smooth="yes"/>
      <point x="1063" y="686"/>
      <point x="1132" y="680"/>
      <point x="1132" y="588" type="curve" smooth="yes"/>
      <point x="1132" y="452"/>
      <point x="891" y="426"/>
      <point x="796" y="426" type="curve"/>
      <point x="792" y="433"/>
      <point x="792" y="446"/>
      <point x="792" y="455" type="curve" smooth="yes"/>
      <point x="792" y="567"/>
      <point x="899" y="686"/>
    </contour>
  </outline>
</glyph>
<glyph name="OE" format="1">
  <advance width="1913"/>
  <unicode hex="0152"/>
  <outline>
    <contour>
      <point x="1655" y="0" type="line"/>
      <point x="1736" y="300" type="line"/>
      <point x="1738" y="304"/>
      <point x="1738" y="308"/>
      <point x="1738" y="312" type="curve" smooth="yes"/>
      <point x="1736" y="340"/>
      <point x="1710" y="352"/>
      <point x="1681" y="352" type="curve" smooth="yes"/>
      <point x="1641" y="352"/>
      <point x="1589" y="330"/>
      <point x="1581" y="300" type="curve" smooth="yes"/>
      <point x="1551" y="183"/>
      <point x="1477" y="104"/>
      <point x="1346" y="104" type="curve" smooth="yes"/>
      <point x="1025" y="104" type="line" smooth="yes"/>
      <point x="1009" y="104"/>
      <point x="992" y="106"/>
      <point x="992" y="138" type="curve" smooth="yes"/>
      <point x="992" y="145"/>
      <point x="993" y="154"/>
      <point x="996" y="166" type="curve" smooth="yes"/>
      <point x="1096" y="611" type="line"/>
      <point x="1382" y="611" type="line" smooth="yes"/>
      <point x="1454" y="611"/>
      <point x="1466" y="472"/>
      <point x="1467" y="458" type="curve"/>
      <point x="1551" y="458" type="line"/>
      <point x="1646" y="822" type="line"/>
      <point x="1549" y="822" type="line"/>
      <point x="1549" y="822"/>
      <point x="1513" y="706"/>
      <point x="1389" y="706" type="curve" smooth="yes"/>
      <point x="1118" y="706" type="line"/>
      <point x="1200" y="1068" type="line"/>
      <point x="1212" y="1126"/>
      <point x="1238" y="1130"/>
      <point x="1257" y="1130" type="curve" smooth="yes"/>
      <point x="1568" y="1130" type="line" smooth="yes"/>
      <point x="1659" y="1130"/>
      <point x="1675" y="1062"/>
      <point x="1707" y="924" type="curve" smooth="yes"/>
      <point x="1714" y="895"/>
      <point x="1739" y="884"/>
      <point x="1763" y="884" type="curve" smooth="yes"/>
      <point x="1799" y="884"/>
      <point x="1836" y="914"/>
      <point x="1836" y="934" type="curve"/>
      <point x="1850" y="1234" type="line"/>
      <point x="827" y="1234" type="line" smooth="yes"/>
      <point x="265" y="1234"/>
      <point x="21" y="899"/>
      <point x="21" y="558" type="curve" smooth="yes"/>
      <point x="21" y="239"/>
      <point x="207" y="0"/>
      <point x="537" y="0" type="curve" smooth="yes"/>
    </contour>
    <contour>
      <point x="971" y="1115" type="line"/>
      <point x="752" y="133" type="line"/>
      <point x="575" y="133" type="line" smooth="yes"/>
      <point x="343" y="133"/>
      <point x="236" y="301"/>
      <point x="236" y="507" type="curve" smooth="yes"/>
      <point x="236" y="778"/>
      <point x="407" y="1115"/>
      <point x="833" y="1115" type="curve" smooth="yes"/>
    </contour>
  </outline>
</glyph>
<glyph name="oe" format="1">
  <advance width="1549"/>
  <unicode hex="0153"/>
  <outline>
    <contour>
      <point x="1040" y="-21" type="curve" smooth="yes"/>
      <point x="1235" y="-21"/>
      <point x="1385" y="119"/>
      <point x="1483" y="261" type="curve"/>
      <point x="1483" y="261"/>
      <point x="1400" y="317"/>
      <point x="1386" y="320" type="curve"/>
      <point x="1303" y="216"/>
      <point x="1219" y="109"/>
      <point x="1058" y="109" type="curve" smooth="yes"/>
      <point x="942" y="109"/>
      <point x="860" y="222"/>
      <point x="860" y="327" type="curve" smooth="yes"/>
      <point x="860" y="335"/>
      <point x="861" y="343"/>
      <point x="861" y="350" type="curve"/>
      <point x="1027" y="357"/>
      <point x="1471" y="397"/>
      <point x="1471" y="658" type="curve" smooth="yes"/>
      <point x="1471" y="843"/>
      <point x="1303" y="926"/>
      <point x="1166" y="926" type="curve" smooth="yes"/>
      <point x="1018" y="926"/>
      <point x="886" y="862"/>
      <point x="793" y="760" type="curve"/>
      <point x="720" y="866"/>
      <point x="601" y="926"/>
      <point x="462" y="926" type="curve" smooth="yes"/>
      <point x="194" y="926"/>
      <point x="-13" y="684"/>
      <point x="-13" y="418" type="curve" smooth="yes"/>
      <point x="-13" y="180"/>
      <point x="170" y="-20"/>
      <point x="391" y="-20" type="curve" smooth="yes"/>
      <point x="524" y="-20"/>
      <point x="642" y="42"/>
      <point x="727" y="138" type="curve"/>
      <point x="800" y="41"/>
      <point x="912" y="-21"/>
    </contour>
    <contour>
      <point x="492" y="831" type="curve" smooth="yes"/>
      <point x="612" y="831"/>
      <point x="657" y="714"/>
      <point x="657" y="580" type="curve" smooth="yes"/>
      <point x="657" y="358"/>
      <point x="531" y="75"/>
      <point x="390" y="75" type="curve" smooth="yes"/>
      <point x="248" y="75"/>
      <point x="193" y="179"/>
      <point x="193" y="320" type="curve" smooth="yes"/>
      <point x="193" y="539"/>
      <point x="340" y="831"/>
    </contour>
    <contour>
      <point x="1155" y="820" type="curve" smooth="yes"/>
      <point x="1215" y="820"/>
      <point x="1268" y="758"/>
      <point x="1268" y="680" type="curve" smooth="yes"/>
      <point x="1268" y="520"/>
      <point x="1000" y="439"/>
      <point x="883" y="439" type="curve" smooth="yes"/>
      <point x="877" y="439"/>
      <point x="862" y="440"/>
      <point x="862" y="440" type="curve"/>
      <point x="871" y="593"/>
      <point x="979" y="820"/>
    </contour>
  </outline>
</glyph>
<glyph name="quoteright" format="1">
  <advance width="326"/>
  <unicode hex="2019"/>
  <outline>
    <contour>
      <point x="-6" y="761" type="line"/>
      <point x="100" y="821"/>
      <point x="221" y="936"/>
      <point x="221" y="1063" type="curve" smooth="yes"/>
      <point x="221" y="1161"/>
      <point x="161" y="1234"/>
      <point x="76" y="1234" type="curve" smooth="yes"/>
      <point x="12" y="1234"/>
      <point x="-36" y="1187"/>
      <point x="-36" y="1137" type="curve"/>
      <point x="-23" y="1100"/>
      <point x="12" y="1023"/>
      <point x="12" y="992" type="curve" smooth="yes"/>
      <point x="12" y="935"/>
      <point x="-22" y="923"/>
      <point x="-96" y="872" type="curve" smooth="yes"/>
    </contour>
  </outline>
</glyph>
<glyph name="fi" format="1">
  <advance width="1555"/>
  <unicode hex="FB01"/>
  <outline>
    <contour>
      <point x="1353" y="827" type="line"/>
      <point x="842" y="827" type="line"/>
      <point x="859" y="891" type="line" smooth="yes"/>
      <point x="878" y="965"/>
      <point x="920" y="1135"/>
      <point x="990" y="1135" type="curve" smooth="yes"/>
      <point x="1078" y="1135"/>
      <point x="1149" y="983"/>
      <point x="1248" y="983" type="curve" smooth="yes"/>
      <point x="1302" y="983"/>
      <point x="1342" y="1012"/>
      <point x="1342" y="1061" type="curve" smooth="yes"/>
      <point x="1342" y="1215"/>
      <point x="1160" y="1251"/>
      <point x="1058" y="1251" type="curve" smooth="yes"/>
      <point x="819" y="1251"/>
      <point x="712" y="1105"/>
      <point x="656" y="895" type="curve" smooth="yes"/>
      <point x="638" y="827" type="line"/>
      <point x="425" y="827" type="line"/>
      <point x="390" y="685" type="line"/>
      <point x="603" y="685" type="line"/>
      <point x="504" y="293" type="line"/>
      <point x="416" y="-63"/>
      <point x="403" y="-198"/>
      <point x="292" y="-198" type="curve" smooth="yes"/>
      <point x="236" y="-198"/>
      <point x="204" y="-57"/>
      <point x="113" y="-57" type="curve" smooth="yes"/>
      <point x="62" y="-57"/>
      <point x="11" y="-80"/>
      <point x="11" y="-133" type="curve" smooth="yes"/>
      <point x="11" y="-263"/>
      <point x="170" y="-303"/>
      <point x="243" y="-303" type="curve" smooth="yes"/>
      <point x="614" y="-303"/>
      <point x="634" y="11"/>
      <point x="718" y="336" type="curve" smooth="yes"/>
      <point x="808" y="685" type="line"/>
      <point x="1147" y="685" type="line"/>
      <point x="1050" y="392" type="line" smooth="yes"/>
      <point x="1027" y="323"/>
      <point x="1002" y="251"/>
      <point x="1002" y="180" type="curve" smooth="yes"/>
      <point x="1002" y="76"/>
      <point x="1061" y="-20"/>
      <point x="1172" y="-20" type="curve" smooth="yes"/>
      <point x="1302" y="-20"/>
      <point x="1394" y="78"/>
      <point x="1455" y="168" type="curve" smooth="yes"/>
      <point x="1525" y="271" type="line"/>
      <point x="1432" y="335" type="line"/>
      <point x="1365" y="235" type="line" smooth="yes"/>
      <point x="1313" y="157"/>
      <point x="1270" y="124"/>
      <point x="1240" y="124" type="curve" smooth="yes"/>
      <point x="1215" y="124"/>
      <point x="1203" y="147"/>
      <point x="1203" y="185" type="curve" smooth="yes"/>
      <point x="1203" y="207"/>
      <point x="1208" y="233"/>
      <point x="1218" y="264" type="curve" smooth="yes"/>
      <point x="1364" y="706" type="line"/>
    </contour>
  </outline>
</glyph>
<glyph name="fl" format="1">
  <advance width="1628"/>
  <unicode hex="FB02"/>
  <outline>
    <contour>
      <point x="638" y="827" type="line"/>
      <point x="425" y="827" type="line"/>
      <point x="390" y="685" type="line"/>
      <point x="603" y="685" type="line"/>
      <point x="504" y="293" type="line"/>
      <point x="416" y="-63"/>
      <point x="403" y="-198"/>
      <point x="292" y="-198" type="curve" smooth="yes"/>
      <point x="236" y="-198"/>
      <point x="204" y="-57"/>
      <point x="113" y="-57" type="curve" smooth="yes"/>
      <point x="62" y="-57"/>
      <point x="11" y="-80"/>
      <point x="11" y="-133" type="curve" smooth="yes"/>
      <point x="11" y="-263"/>
      <point x="170" y="-303"/>
      <point x="243" y="-303" type="curve" smooth="yes"/>
      <point x="614" y="-303"/>
      <point x="634" y="10"/>
      <point x="718" y="336" type="curve" smooth="yes"/>
      <point x="808" y="685" type="line"/>
      <point x="1163" y="685" type="line"/>
      <point x="1083" y="392" type="line" smooth="yes"/>
      <point x="1063" y="320"/>
      <point x="1036" y="249"/>
      <point x="1036" y="177" type="curve" smooth="yes"/>
      <point x="1036" y="74"/>
      <point x="1095" y="-20"/>
      <point x="1205" y="-20" type="curve" smooth="yes"/>
      <point x="1335" y="-20"/>
      <point x="1427" y="78"/>
      <point x="1488" y="168" type="curve" smooth="yes"/>
      <point x="1558" y="271" type="line"/>
      <point x="1465" y="335" type="line"/>
      <point x="1398" y="235" type="line" smooth="yes"/>
      <point x="1346" y="157"/>
      <point x="1303" y="124"/>
      <point x="1273" y="124" type="curve" smooth="yes"/>
      <point x="1248" y="124"/>
      <point x="1236" y="147"/>
      <point x="1236" y="185" type="curve" smooth="yes"/>
      <point x="1236" y="207"/>
      <point x="1242" y="232"/>
      <point x="1251" y="264" type="curve" smooth="yes"/>
      <point x="1495" y="1133"/>
      <point x="1511" y="1203"/>
      <point x="1512" y="1207" type="curve"/>
      <point x="1511" y="1226"/>
      <point x="1498" y="1230"/>
      <point x="1478" y="1232" type="curve" smooth="yes"/>
      <point x="1351" y="1245"/>
      <point x="1247" y="1252"/>
      <point x="1162" y="1252" type="curve" smooth="yes"/>
      <point x="799" y="1252"/>
      <point x="772" y="1131"/>
      <point x="668" y="895" type="curve" smooth="yes"/>
    </contour>
    <contour>
      <point x="842" y="827" type="line"/>
      <point x="859" y="891" type="line" smooth="yes"/>
      <point x="899" y="1040"/>
      <point x="968" y="1099"/>
      <point x="1072" y="1099" type="curve" smooth="yes"/>
      <point x="1144" y="1099"/>
      <point x="1208" y="1095"/>
      <point x="1281" y="1091" type="curve"/>
      <point x="1201" y="827" type="line"/>
    </contour>
    <contour>
      <point x="1513" y="1195" type="line"/>
      <point x="1513" y="1197" type="line" smooth="yes"/>
      <point x="1514" y="1199"/>
      <point x="1514" y="1201"/>
      <point x="1514" y="1202" type="curve"/>
      <point x="1514" y="1204" type="line"/>
    </contour>
  </outline>
</glyph>
<glyph name="ffi" format="1">
  <advance width="2200"/>
  <unicode hex="FB03"/>
  <outline>
    <contour>
      <point x="29" y="-285" type="curve"/>
      <point x="48" y="-388"/>
      <point x="186" y="-412"/>
      <point x="265" y="-412" type="curve" smooth="yes"/>
      <point x="371" y="-412"/>
      <point x="442" y="-305"/>
      <point x="528" y="-305" type="curve" smooth="yes"/>
      <point x="596" y="-305"/>
      <point x="724" y="-391"/>
      <point x="840" y="-391" type="curve" smooth="yes"/>
      <point x="1397" y="-391"/>
      <point x="1294" y="662"/>
      <point x="1424" y="662" type="curve" smooth="yes"/>
      <point x="1781" y="662" type="line" smooth="yes"/>
      <point x="1809" y="662"/>
      <point x="1810" y="620"/>
      <point x="1811" y="610" type="curve" smooth="yes"/>
      <point x="1812" y="602"/>
      <point x="1812" y="595"/>
      <point x="1812" y="587" type="curve" smooth="yes"/>
      <point x="1812" y="447"/>
      <point x="1699" y="324"/>
      <point x="1699" y="181" type="curve" smooth="yes"/>
      <point x="1699" y="57"/>
      <point x="1769" y="9"/>
      <point x="1863" y="9" type="curve" smooth="yes"/>
      <point x="1974" y="9"/>
      <point x="2167" y="137"/>
      <point x="2167" y="257" type="curve" smooth="yes"/>
      <point x="2167" y="294"/>
      <point x="2143" y="306"/>
      <point x="2116" y="306" type="curve" smooth="yes"/>
      <point x="2113" y="306"/>
      <point x="2099" y="306"/>
      <point x="2097" y="304" type="curve" smooth="yes"/>
      <point x="2050" y="244"/>
      <point x="1959" y="135"/>
      <point x="1937" y="136" type="curve"/>
      <point x="1926" y="139"/>
      <point x="1893" y="168"/>
      <point x="1887" y="179" type="curve"/>
      <point x="1932" y="369"/>
      <point x="1996" y="554"/>
      <point x="2038" y="747" type="curve"/>
      <point x="2039" y="747"/>
      <point x="2039" y="750"/>
      <point x="2039" y="752" type="curve" smooth="yes"/>
      <point x="2039" y="755"/>
      <point x="2038" y="768"/>
      <point x="2035" y="768" type="curve"/>
      <point x="1948" y="790" type="line"/>
      <point x="1446" y="790" type="line"/>
      <point x="1444" y="802"/>
      <point x="1442" y="815"/>
      <point x="1442" y="829" type="curve" smooth="yes"/>
      <point x="1442" y="966"/>
      <point x="1570" y="1085"/>
      <point x="1710" y="1085" type="curve" smooth="yes"/>
      <point x="1823" y="1085"/>
      <point x="1890" y="978"/>
      <point x="2000" y="978" type="curve" smooth="yes"/>
      <point x="2044" y="978"/>
      <point x="2071" y="997"/>
      <point x="2071" y="1039" type="curve" smooth="yes"/>
      <point x="2071" y="1131"/>
      <point x="1969" y="1185"/>
      <point x="1896" y="1209" type="curve"/>
      <point x="1876" y="1211"/>
      <point x="1787" y="1214"/>
      <point x="1767" y="1214" type="curve" smooth="yes"/>
      <point x="1637" y="1214"/>
      <point x="1541" y="1124"/>
      <point x="1426" y="1124" type="curve" smooth="yes"/>
      <point x="1323" y="1124"/>
      <point x="1202" y="1211"/>
      <point x="1085" y="1211" type="curve" smooth="yes"/>
      <point x="809" y="1211"/>
      <point x="711" y="1008"/>
      <point x="645" y="779" type="curve"/>
      <point x="434" y="779" type="line" smooth="yes"/>
      <point x="427" y="779"/>
      <point x="406" y="741"/>
      <point x="401" y="726" type="curve" smooth="yes"/>
      <point x="400" y="721"/>
      <point x="400" y="715"/>
      <point x="400" y="708" type="curve" smooth="yes"/>
      <point x="400" y="694"/>
      <point x="401" y="678"/>
      <point x="401" y="673" type="curve"/>
      <point x="600" y="673" type="line"/>
      <point x="609" y="621" type="line"/>
      <point x="596" y="576"/>
      <point x="545" y="369"/>
      <point x="535" y="326" type="curve" smooth="yes"/>
      <point x="511" y="224"/>
      <point x="469" y="-246"/>
      <point x="344" y="-264" type="curve"/>
      <point x="255" y="-208"/>
      <point x="201" y="-176"/>
      <point x="118" y="-176" type="curve" smooth="yes"/>
      <point x="67" y="-176"/>
      <point x="27" y="-215"/>
      <point x="27" y="-267" type="curve" smooth="yes"/>
      <point x="27" y="-273"/>
      <point x="29" y="-279"/>
    </contour>
    <contour>
      <point x="634" y="-129" type="curve"/>
      <point x="634" y="-120" type="line" smooth="yes"/>
      <point x="634" y="18"/>
      <point x="820" y="662"/>
      <point x="834" y="662" type="curve" smooth="yes"/>
      <point x="1191" y="662" type="line"/>
      <point x="1198" y="621" type="line"/>
      <point x="1198" y="609"/>
      <point x="1118" y="242"/>
      <point x="1080" y="94" type="curve" smooth="yes"/>
      <point x="1054" y="-8"/>
      <point x="1026" y="-267"/>
      <point x="864" y="-267" type="curve" smooth="yes"/>
      <point x="853" y="-267"/>
      <point x="828" y="-264"/>
      <point x="828" y="-264" type="curve"/>
      <point x="636" y="-137" type="line"/>
      <point x="635" y="-137"/>
      <point x="634" y="-130"/>
    </contour>
    <contour>
      <point x="850" y="810" type="line" smooth="yes"/>
      <point x="842" y="817"/>
      <point x="838" y="828"/>
      <point x="838" y="841" type="curve" smooth="yes"/>
      <point x="838" y="920"/>
      <point x="962" y="1085"/>
      <point x="1044" y="1085" type="curve" smooth="yes"/>
      <point x="1109" y="1085"/>
      <point x="1290" y="1016"/>
      <point x="1290" y="942" type="curve" smooth="yes"/>
      <point x="1290" y="916"/>
      <point x="1239" y="807"/>
      <point x="1232" y="790" type="curve"/>
      <point x="875" y="790" type="line"/>
    </contour>
  </outline>
</glyph>
